<svg width="40" height="40" viewBox="0 0 40 40" fill="none" xmlns="http://www.w3.org/2000/svg">
<g id="Component 2">
<g id="Clip path group">
<mask id="mask0_1323_45173" style="mask-type:luminance" maskUnits="userSpaceOnUse" x="4" y="4" width="32" height="32">
<g id="clip0_1_20121">
<path id="Vector" d="M4 4H36V36H4V4Z" fill="white"/>
</g>
</mask>
<g mask="url(#mask0_1323_45173)">
<g id="Group">
<path id="Vector_2" fill-rule="evenodd" clip-rule="evenodd" d="M13.3417 13.3418C13.7973 12.8862 14.536 12.8862 14.9916 13.3418L19.5875 17.9377C19.8153 18.1655 20.1847 18.1655 20.4125 17.9377L25.0084 13.3418C25.464 12.8862 26.2027 12.8862 26.6583 13.3418C27.1139 13.7974 27.1139 14.5361 26.6583 14.9917L22.0624 19.5876C21.8346 19.8154 21.8346 20.1848 22.0624 20.4125L26.6583 25.0085C27.1139 25.4641 27.1139 26.2027 26.6583 26.6584C26.2027 27.114 25.464 27.114 25.0084 26.6584L20.4125 22.0624C20.1847 21.8347 19.8153 21.8347 19.5875 22.0624L14.9916 26.6584C14.536 27.114 13.7973 27.114 13.3417 26.6584C12.8861 26.2027 12.8861 25.4641 13.3417 25.0085L17.9376 20.4125C18.1654 20.1848 18.1654 19.8154 17.9376 19.5876L13.3417 14.9917C12.8861 14.5361 12.8861 13.7974 13.3417 13.3418Z" fill="#6CEABD"/>
</g>
</g>
</g>
</g>
</svg>
