<svg width="59" height="58" viewBox="0 0 59 58" fill="none" xmlns="http://www.w3.org/2000/svg">
<g id="Frame 3465931">
<g id="Group 72">
<g id="Group 71">
<path id="Ellipse 18" d="M29.457 57.5C45.1971 57.5 57.957 44.7401 57.957 29C57.957 13.2599 45.1971 0.5 29.457 0.5" stroke="#6CEABD" stroke-width="0.5" stroke-dasharray="2 2"/>
<path id="Ellipse 19" opacity="0.2" d="M29.457 57.5C13.7169 57.5 0.957032 44.7401 0.957032 29C0.957032 13.2599 13.7169 0.5 29.457 0.5" stroke="#6CEABD" stroke-width="0.5" stroke-dasharray="2 2"/>
<path id="Vector 26" d="M29.457 0.5V57.5" stroke="#6CEABD" stroke-width="0.8" stroke-linecap="round"/>
<path id="Union" fill-rule="evenodd" clip-rule="evenodd" d="M45.0717 26.5341C44.9922 26.4546 44.8633 26.4546 44.7838 26.5341C44.7043 26.6136 44.7043 26.7425 44.7838 26.822L46.1465 28.1847H34.5463C34.4339 28.1847 34.3428 28.2758 34.3428 28.3882C34.3428 28.5007 34.4339 28.5918 34.5463 28.5918H46.1808L44.7838 29.9888C44.7043 30.0683 44.7043 30.1972 44.7838 30.2767C44.8633 30.3562 44.9922 30.3562 45.0717 30.2767L46.799 28.5493C46.8785 28.4698 46.8785 28.3409 46.799 28.2614L45.0717 26.5341Z" fill="#6CEABD"/>
<path id="Union_2" opacity="0.2" fill-rule="evenodd" clip-rule="evenodd" d="M14.1432 26.5293C14.2227 26.4498 14.3516 26.4498 14.4311 26.5293C14.5106 26.6088 14.5106 26.7377 14.4311 26.8172L13.0685 28.1797H24.6685C24.7809 28.1797 24.8721 28.2709 24.8721 28.3833C24.8721 28.4957 24.7809 28.5869 24.6685 28.5869H13.0339L14.4311 29.984C14.5106 30.0635 14.5106 30.1924 14.4311 30.2719C14.3516 30.3514 14.2227 30.3514 14.1432 30.2719L12.4158 28.5446C12.3363 28.4651 12.3363 28.3362 12.4158 28.2567L14.1432 26.5293Z" fill="#6CEABD"/>
<circle id="Ellipse 17" cx="29.4577" cy="28.1836" r="1.62857" fill="#6CEABD"/>
</g>
</g>
</g>
</svg>
