<svg width="41" height="71" viewBox="0 0 41 71" fill="none" xmlns="http://www.w3.org/2000/svg">
<g id="Frame 3465928">
<g id="Group 70">
<rect id="Rectangle 2446" x="0.963477" y="24.8241" width="39.0734" height="45.2759" rx="7.6" stroke="#6CEABD" stroke-width="0.8"/>
<g id="Group 65">
<circle id="Ellipse 10" cx="10.752" cy="33.7279" r="1.32911" fill="#6CEABD"/>
<circle id="Ellipse 11" cx="20.4981" cy="33.7279" r="1.32911" fill="#6CEABD"/>
<circle id="Ellipse 12" cx="30.2461" cy="33.7279" r="1.32911" fill="#6CEABD"/>
</g>
<g id="Group 67">
<circle id="Ellipse 10_2" cx="10.752" cy="39.9304" r="1.32911" fill="#6CEABD"/>
<circle id="Ellipse 11_2" cx="20.4981" cy="39.9304" r="1.32911" fill="#6CEABD"/>
<circle id="Ellipse 12_2" cx="30.2461" cy="39.9304" r="1.32911" fill="#6CEABD"/>
</g>
<g id="Group 66">
<circle id="Ellipse 13" cx="20.9428" cy="56.3228" r="5.80253" stroke="#6CEABD" stroke-width="0.8"/>
<path id="Vector 21" d="M20.9434 46.5759V48.3481" stroke="#6CEABD" stroke-width="0.8" stroke-linecap="round"/>
<path id="Vector 22" d="M20.9434 64.2974V66.0695" stroke="#6CEABD" stroke-width="0.8" stroke-linecap="round"/>
<path id="Vector 23" d="M30.6895 56.3228L28.9173 56.3228" stroke="#6CEABD" stroke-width="0.8" stroke-linecap="round"/>
<path id="Vector 24" d="M12.9688 56.3228L11.1966 56.3228" stroke="#6CEABD" stroke-width="0.8" stroke-linecap="round"/>
</g>
<path id="Ellipse 14" d="M29.2629 19.6476C28.7889 17.7469 27.6924 16.0595 26.1482 14.8542C24.604 13.6488 22.7008 12.9949 20.7419 12.9965C18.783 12.9981 16.8809 13.6552 15.3387 14.8631C13.7965 16.071 12.7028 17.7602 12.2319 19.6617" stroke="#6CEABD" stroke-width="0.8" stroke-linecap="round"/>
<path id="Ellipse 15" d="M33.5218 18.583C32.8096 15.7278 31.1612 13.1936 28.8399 11.3852C26.5185 9.5768 23.6581 8.59844 20.7155 8.60639C17.7729 8.61435 14.9178 9.60817 12.6063 11.4291C10.2947 13.2501 8.6601 15.7931 7.96341 18.6521" stroke="#6CEABD" stroke-width="0.8" stroke-linecap="round"/>
<path id="Ellipse 16" d="M37.7793 17.5276C36.8307 13.7247 34.6364 10.3487 31.5462 7.9379C28.4559 5.52708 24.6475 4.22015 20.7281 4.22542C16.8087 4.2307 13.0038 5.54788 9.92007 7.96701C6.8363 10.3861 4.6511 13.768 3.71281 17.5734" stroke="#6CEABD" stroke-width="0.8" stroke-linecap="round"/>
</g>
</g>
</svg>
