<svg width="24" height="24" viewBox="0 0 24 24" fill="none" xmlns="http://www.w3.org/2000/svg">
<g id="icons8-whatsapp">
<path id="Vector" d="M12.0129 1C5.95629 1 1.02583 5.92621 1.02363 11.9828C1.02253 13.9188 1.52962 15.8088 2.49102 17.4742L1 23L6.75566 21.64C8.36056 22.5156 10.1672 22.9753 12.0064 22.9764H12.0107C18.0662 22.9764 22.9946 18.0491 22.9979 11.9936C23.0001 9.05765 21.8584 6.29731 19.7838 4.22051C17.7092 2.14481 14.9521 1.0011 12.0129 1ZM12.0107 3.2C14.3603 3.2011 16.5684 4.11718 18.2283 5.77598C19.8882 7.43698 20.8001 9.64401 20.7979 11.9914C20.7957 16.8358 16.8552 20.7764 12.0086 20.7764C10.5423 20.7753 9.08985 20.4071 7.81055 19.7086L7.06934 19.3047L6.25078 19.498L4.08516 20.0094L4.61367 18.0457L4.85215 17.1648L4.39668 16.3742C3.62888 15.0454 3.22253 13.5261 3.22363 11.9828C3.22583 7.14061 7.16744 3.2 12.0107 3.2ZM8.12422 6.9125C7.94052 6.9125 7.6435 6.98125 7.3916 7.25625C7.1397 7.53015 6.4291 8.19354 6.4291 9.54434C6.4291 10.8951 7.41309 12.2009 7.55059 12.3846C7.68699 12.5672 9.44993 15.4268 12.2406 16.5268C14.5594 17.4409 15.0304 17.2605 15.5342 17.2143C16.038 17.1692 17.1595 16.5515 17.3883 15.9102C17.6171 15.2689 17.6176 14.7172 17.5494 14.6039C17.4812 14.4895 17.298 14.4213 17.023 14.2838C16.7491 14.1463 15.3994 13.4835 15.1475 13.3922C14.8956 13.3009 14.7113 13.2547 14.5287 13.5297C14.3461 13.8047 13.8213 14.4213 13.6607 14.6039C13.5001 14.7876 13.3406 14.8123 13.0656 14.6748C12.7906 14.5362 11.9064 14.2455 10.857 13.3105C10.0408 12.5834 9.49009 11.6863 9.32949 11.4113C9.16999 11.1374 9.31445 10.987 9.45195 10.8506C9.57515 10.7274 9.7248 10.5299 9.8623 10.3693C9.9987 10.2087 10.046 10.0943 10.1373 9.91172C10.2286 9.72912 10.1819 9.56797 10.1137 9.43047C10.0455 9.29297 9.51139 7.93715 9.26719 7.39375C9.06149 6.93725 8.84424 6.92665 8.64844 6.91895C8.48894 6.91235 8.30682 6.9125 8.12422 6.9125Z" fill="#25D366"/>
</g>
</svg>
