<svg width="100" height="100" viewBox="0 0 100 100" fill="none" xmlns="http://www.w3.org/2000/svg">
<g id="free-icon-sad-face-5523226 1">
<g id="Group 108">
<path id="Vector" d="M50 92C41.6932 92 33.5729 89.5367 26.6661 84.9217C19.7592 80.3067 14.376 73.7472 11.1971 66.0727C8.0182 58.3982 7.18646 49.9534 8.80704 41.8062C10.4276 33.659 14.4277 26.1753 20.3015 20.3015C26.1753 14.4277 33.659 10.4276 41.8062 8.80704C49.9534 7.18646 58.3982 8.0182 66.0727 11.1971C73.7472 14.376 80.3067 19.7592 84.9217 26.6661C89.5367 33.5729 92 41.6932 92 50C91.9873 61.1352 87.5582 71.8107 79.6845 79.6845C71.8107 87.5582 61.1352 91.9873 50 92ZM50 10.4C42.1679 10.4 34.5116 12.7225 27.9994 17.0738C21.4872 21.4251 16.4116 27.6098 13.4144 34.8457C10.4172 42.0817 9.63295 50.0439 11.1609 57.7256C12.6889 65.4072 16.4604 72.4633 21.9986 78.0014C27.5367 83.5396 34.5928 87.3111 42.2744 88.8391C49.9561 90.3671 57.9183 89.5829 65.1543 86.5856C72.3902 83.5884 78.5749 78.5128 82.9262 72.0006C87.2775 65.4884 89.6 57.8321 89.6 50C89.5879 39.5011 85.4119 29.4357 77.9881 22.0119C70.5643 14.5881 60.4989 10.4121 50 10.4Z" fill="white" stroke="white" stroke-width="1.2"/>
<path id="Vector_2" d="M35.5918 45.7497C34.5337 45.7497 33.4994 45.436 32.6197 44.8482C31.74 44.2603 31.0543 43.4249 30.6494 42.4473C30.2445 41.4698 30.1386 40.3942 30.345 39.3565C30.5514 38.3188 31.0609 37.3656 31.8091 36.6174C32.5572 35.8692 33.5104 35.3597 34.5481 35.1533C35.5859 34.9469 36.6615 35.0529 37.639 35.4578C38.6165 35.8627 39.452 36.5483 40.0398 37.4281C40.6276 38.3078 40.9414 39.3421 40.9414 40.4001C40.9398 41.8185 40.3757 43.1782 39.3728 44.1811C38.3699 45.184 37.0101 45.7481 35.5918 45.7497ZM35.5918 37.4505C35.0084 37.4505 34.4381 37.6235 33.9531 37.9476C33.468 38.2717 33.09 38.7324 32.8667 39.2714C32.6435 39.8103 32.5851 40.4034 32.6989 40.9756C32.8127 41.5477 33.0936 42.0733 33.5061 42.4858C33.9186 42.8983 34.4442 43.1793 35.0164 43.2931C35.5885 43.4069 36.1816 43.3485 36.7206 43.1252C37.2595 42.902 37.7202 42.5239 38.0443 42.0388C38.3684 41.5538 38.5414 40.9835 38.5414 40.4001C38.5404 39.6181 38.2294 38.8685 37.6764 38.3155C37.1235 37.7626 36.3738 37.4515 35.5918 37.4505Z" fill="white" stroke="white" stroke-width="1.2"/>
<path id="Vector_3" d="M64.3965 45.7497C63.3384 45.7497 62.3041 45.436 61.4244 44.8482C60.5447 44.2603 59.859 43.4249 59.4541 42.4473C59.0492 41.4698 58.9433 40.3942 59.1497 39.3565C59.3561 38.3188 59.8656 37.3656 60.6137 36.6174C61.3619 35.8692 62.3151 35.3597 63.3528 35.1533C64.3905 34.9469 65.4662 35.0529 66.4437 35.4578C67.4212 35.8627 68.2567 36.5483 68.8445 37.4281C69.4323 38.3078 69.7461 39.3421 69.7461 40.4001C69.7445 41.8185 69.1804 43.1782 68.1775 44.1811C67.1746 45.184 65.8148 45.7481 64.3965 45.7497ZM64.3965 37.4505C63.8131 37.4505 63.2428 37.6235 62.7578 37.9476C62.2727 38.2717 61.8946 38.7324 61.6714 39.2714C61.4482 39.8103 61.3897 40.4034 61.5036 40.9756C61.6174 41.5477 61.8983 42.0733 62.3108 42.4858C62.7233 42.8983 63.2489 43.1793 63.821 43.2931C64.3932 43.4069 64.9863 43.3485 65.5252 43.1252C66.0642 42.902 66.5249 42.5239 66.849 42.0388C67.1731 41.5538 67.3461 40.9835 67.3461 40.4001C67.3451 39.6181 67.0341 38.8685 66.4811 38.3155C65.9282 37.7626 65.1785 37.4515 64.3965 37.4505Z" fill="white" stroke="white" stroke-width="1.2"/>
<path id="Vector_4" d="M64.3934 70.2096C64.1527 70.2099 63.9175 70.1371 63.719 70.0008C54.479 63.7044 45.5054 63.7044 36.2702 70.0008C36.0072 70.1696 35.6887 70.2292 35.3825 70.1669C35.0762 70.1045 34.8063 69.9251 34.6303 69.6668C34.4543 69.4086 34.386 69.0918 34.4399 68.784C34.4938 68.4761 34.6657 68.2014 34.919 68.0184C44.9222 61.1964 55.067 61.1964 65.0702 68.0184C65.2821 68.1629 65.442 68.3716 65.5266 68.6137C65.6113 68.8558 65.6161 69.1186 65.5404 69.3637C65.4647 69.6087 65.3125 69.8231 65.1061 69.9753C64.8997 70.1276 64.6499 70.2096 64.3934 70.2096Z" fill="white" stroke="white" stroke-width="1.2"/>
</g>
</g>
</svg>
