<svg width="24" height="24" viewBox="0 0 24 24" fill="none" xmlns="http://www.w3.org/2000/svg">
<g id="pdf" clip-path="url(#clip0_757_34559)">
<g id="Group">
<g id="Group_2">
<path id="Vector" d="M23.1778 6.49486L17.0635 0.141469C16.9764 0.0510937 16.8563 0 16.7309 0H7.61794C6.59808 0 5.76834 0.829406 5.76834 1.84884V8.3077H2.0752C1.31217 8.3077 0.691406 8.92828 0.691406 9.69112V16.6166C0.691406 17.3794 1.31217 18 2.0752 18H5.76834V22.1544C5.76834 23.172 6.59808 24 7.61794 24H21.4572C22.4771 24 23.3068 23.1725 23.3068 22.1554V6.81492C23.3068 6.69558 23.2605 6.58088 23.1778 6.49486ZM16.8453 1.24598L21.8646 6.46153H16.8453V1.24598ZM2.0752 17.0769C1.82114 17.0769 1.61452 16.8705 1.61452 16.6166V9.69112C1.61452 9.4373 1.82119 9.23077 2.0752 9.23077H14.5384C14.7925 9.23077 14.9991 9.4373 14.9991 9.69112V16.6166C14.9991 16.8705 14.7924 17.0769 14.5384 17.0769H2.0752ZM22.3837 22.1554C22.3837 22.6635 21.9681 23.0769 21.4572 23.0769H7.61794C7.10705 23.0769 6.69141 22.6631 6.69141 22.1544V18H14.5384C15.3015 18 15.9222 17.3794 15.9222 16.6166V9.69112C15.9222 8.92828 15.3015 8.3077 14.5384 8.3077H6.69141V1.84884C6.69141 1.33833 7.10705 0.923062 7.61794 0.923062H15.9222V6.92306C15.9222 7.17797 16.1288 7.38459 16.3837 7.38459H22.3837V22.1554Z" fill="white"/>
</g>
</g>
<g id="Group_3">
<g id="Group_4">
<path id="Vector_2" d="M6.20945 11.7137C6.05622 11.5145 5.866 11.3851 5.63884 11.3256C5.491 11.2859 5.1737 11.2661 4.68691 11.2661H3.40234V15.2307H4.20283V13.7352H4.72478C5.08717 13.7352 5.36392 13.7162 5.55503 13.6783C5.69566 13.6477 5.83403 13.5851 5.97016 13.4904C6.10628 13.3957 6.2185 13.2655 6.30686 13.0996C6.39522 12.9338 6.43937 12.7291 6.43937 12.4858C6.43933 12.1702 6.36269 11.9129 6.20945 11.7137ZM5.52391 12.8049C5.46353 12.8932 5.38014 12.9581 5.27373 12.9996C5.16733 13.0411 4.95644 13.0618 4.64092 13.0618H4.20283V11.9368H4.58955C4.87802 11.9368 5.07002 11.9458 5.16555 11.9638C5.29534 11.9873 5.40264 12.0459 5.48734 12.1396C5.57209 12.2334 5.61447 12.3524 5.61447 12.4966C5.61452 12.6138 5.58428 12.7165 5.52391 12.8049Z" fill="white"/>
</g>
</g>
<g id="Group_5">
<g id="Group_6">
<path id="Vector_3" d="M10.2876 12.3492C10.201 12.0959 10.0748 11.8818 9.90897 11.7069C9.74313 11.532 9.54386 11.4103 9.31131 11.3418C9.13825 11.2913 8.88672 11.2661 8.55681 11.2661H7.09375V15.2307H8.60008C8.89577 15.2307 9.13192 15.2027 9.30859 15.1468C9.5448 15.0711 9.7323 14.9656 9.87109 14.8304C10.055 14.6519 10.1965 14.4185 10.2957 14.13C10.3768 13.8938 10.4174 13.6125 10.4174 13.2862C10.4174 12.9148 10.3741 12.6025 10.2876 12.3492ZM9.5087 13.9772C9.45461 14.1548 9.38477 14.2824 9.29913 14.3599C9.21348 14.4374 9.10577 14.4924 8.97597 14.5248C8.87683 14.5501 8.71544 14.5627 8.49189 14.5627H7.89423V11.9368H8.25391C8.5802 11.9368 8.7993 11.9494 8.91105 11.9747C9.06067 12.0071 9.18419 12.0693 9.28155 12.1613C9.37891 12.2533 9.45461 12.3812 9.5087 12.5453C9.5628 12.7093 9.58984 12.9446 9.58984 13.2511C9.58984 13.5576 9.5628 13.7996 9.5087 13.9772Z" fill="white"/>
</g>
</g>
<g id="Group_7">
<g id="Group_8">
<path id="Vector_4" d="M13.8194 11.9368V11.2661H11.1016V15.2307H11.902V13.5459H13.5571V12.8752H11.902V11.9368H13.8194Z" fill="white"/>
</g>
</g>
</g>
<defs>
<clipPath id="clip0_757_34559">
<rect width="24" height="24" fill="white"/>
</clipPath>
</defs>
</svg>