<svg width="20" height="20" viewBox="0 0 20 20" fill="none" xmlns="http://www.w3.org/2000/svg">
<g id="Frame 1321315606">
<path id="Vector (Stroke)" fill-rule="evenodd" clip-rule="evenodd" d="M2.34087 0.713703C3.51275 -0.454458 5.47765 -0.127791 6.30729 1.25054L6.31306 1.26013L8.22551 4.52833C8.7887 5.51077 8.64662 6.77375 7.80641 7.61128L7.48921 7.92747C8.61233 9.68905 10.3185 11.4318 12.043 12.4771L12.3583 12.1977C13.1985 11.3786 14.4527 11.2439 15.4301 11.8007L15.4372 11.8047L18.6735 13.6866C19.4747 14.0701 19.8964 14.8113 19.9828 15.5512C20.069 16.2905 19.8324 17.0929 19.2569 17.6666L18.1664 18.7536C17.0342 19.8823 15.191 20.3818 13.6181 19.6691C11.5477 18.823 8.44251 17.2265 5.61244 14.4054C2.77498 11.577 1.17557 8.38501 0.335244 6.43241C-0.381631 4.86927 0.112366 3.0365 1.23672 1.905L2.3157 0.739817C2.32391 0.730946 2.3323 0.722239 2.34087 0.713703ZM3.63596 1.98519L2.56071 3.14635C2.55249 3.15522 2.5441 3.16392 2.53554 3.17246C1.85487 3.85096 1.6284 4.90199 1.99105 5.68523C1.99454 5.69277 1.99793 5.70036 2.00122 5.708C2.79793 7.56109 4.28767 10.5226 6.89764 13.1243C9.51226 15.7306 12.3955 17.213 14.3237 17.9993C14.336 18.0044 14.3483 18.0097 14.3604 18.0153C15.1462 18.3768 16.2005 18.151 16.8812 17.4725L17.9717 16.3855C18.1233 16.2344 18.2047 15.995 18.1774 15.7605C18.1518 15.5409 18.0429 15.3904 17.8748 15.3142C17.8468 15.3016 17.8195 15.2875 17.7929 15.272L14.5255 13.3721C14.2392 13.2107 13.872 13.2508 13.6225 13.4995C13.61 13.5121 13.597 13.5242 13.5837 13.536L12.7658 14.2607C12.4841 14.5103 12.0772 14.5607 11.7428 14.3874C9.29085 13.1164 6.89838 10.6235 5.55301 8.22864C5.3542 7.87475 5.4156 7.43227 5.70332 7.14547L6.52121 6.33017C6.77071 6.08147 6.81097 5.71544 6.64902 5.43006L4.7464 2.17879C4.48742 1.75402 3.9207 1.71526 3.63596 1.98519Z" fill="#222222"/>
<path id="Vector (Stroke)_2" fill-rule="evenodd" clip-rule="evenodd" d="M13.8696 6.13154C13.4138 5.67572 12.7097 5.51233 12.2118 5.67828C11.6938 5.85096 11.1338 5.57099 10.9612 5.05294C10.7885 4.5349 11.0685 3.97495 11.5865 3.80227C12.8684 3.37498 14.3395 3.80483 15.2679 4.73325C16.1963 5.66167 16.6262 7.1328 16.1989 8.41468C16.0262 8.93272 15.4663 9.21269 14.9482 9.04001C14.4302 8.86733 14.1502 8.30738 14.3229 7.78934C14.4889 7.29147 14.3255 6.58737 13.8696 6.13154Z" fill="#222222"/>
<path id="Vector (Stroke)_3" fill-rule="evenodd" clip-rule="evenodd" d="M16.3165 3.68243C14.7036 2.06957 12.3592 1.50196 10.2585 2.06753C9.76393 2.20067 9.2551 1.90771 9.12196 1.41318C8.98882 0.918652 9.28178 0.409823 9.77631 0.276681C12.4976 -0.45598 15.5315 0.274637 17.6279 2.37102C19.7243 4.4674 20.4549 7.50132 19.7223 10.2226C19.5891 10.7172 19.0803 11.0101 18.5858 10.877C18.0912 10.7438 17.7983 10.235 17.9314 9.74047C18.497 7.63977 17.9294 5.29529 16.3165 3.68243Z" fill="#222222"/>
</g>
</svg>
