<svg width="56" height="57" viewBox="0 0 56 57" fill="none" xmlns="http://www.w3.org/2000/svg">
<g id="Frame 3465929">
<g id="Group 76">
<rect id="Rectangle 2446" x="2.13926" y="2.14002" width="44.4427" height="44.4427" rx="7.6" stroke="#6CEABD" stroke-width="0.8"/>
<circle id="Ellipse 13" cx="17.401" cy="13.8155" r="4.82031" stroke="#6CEABD" stroke-width="0.8"/>
<path id="Vector 25" d="M46.5481 28.7322L35.4237 17.6078C35.0332 17.2173 34.4 17.2173 34.0095 17.6078L20.3508 31.2665C19.9603 31.657 19.3271 31.657 18.9366 31.2665L12.0454 24.3752C11.6548 23.9847 11.0217 23.9847 10.6311 24.3752L2.35178 32.6546" stroke="#6CEABD" stroke-width="0.8" stroke-linecap="round"/>
<g id="Group 73">
<path id="Rectangle 2448" d="M46.9828 54.0739L3.25391 54.0739" stroke="#6CEABD" stroke-width="0.5" stroke-linecap="round" stroke-dasharray="2 2"/>
<ellipse id="Ellipse 20" cx="3.31725" cy="54.0739" rx="1.7401" ry="1.7401" fill="#6CEABD"/>
<ellipse id="Ellipse 21" cx="46.9823" cy="54.0739" rx="1.7401" ry="1.7401" fill="#6CEABD"/>
</g>
<g id="Group 74">
<path id="Rectangle 2447" d="M53.9443 2.59851V45.0691" stroke="#6CEABD" stroke-width="0.5" stroke-linecap="round" stroke-dasharray="2 2"/>
<ellipse id="Ellipse 22" cx="53.9442" cy="45.1327" rx="1.7401" ry="1.7401" fill="#6CEABD"/>
<ellipse id="Ellipse 23" cx="53.9442" cy="2.66213" rx="1.7401" ry="1.7401" fill="#6CEABD"/>
</g>
</g>
</g>
</svg>
