<svg width="51" height="53" viewBox="0 0 51 53" fill="none" xmlns="http://www.w3.org/2000/svg">
<g id="Frame 3465927" clip-path="url(#clip0_757_20733)">
<g id="Group 68">
<rect id="Rectangle 2446" x="0.439063" y="1.49363" width="49.9919" height="49.9919" rx="7.6" stroke="#6CEABD" stroke-width="0.8"/>
<path id="Ellipse 13" d="M23.082 14.6501C23.082 17.6659 20.6372 20.1107 17.6213 20.1107C14.6055 20.1107 12.1607 17.6659 12.1607 14.6501C12.1607 11.6343 14.6055 9.18946 17.6213 9.18946C20.6372 9.18946 23.082 11.6343 23.082 14.6501Z" stroke="#6CEABD" stroke-width="0.8"/>
<path id="Vector 25" d="M50.3422 31.3963L37.7666 18.8207C37.3761 18.4302 36.7429 18.4302 36.3524 18.8207L20.845 34.3281C20.4545 34.7186 19.8213 34.7186 19.4308 34.3281L11.5208 26.4182C11.1303 26.0276 10.4971 26.0276 10.1066 26.4182L0.385862 36.1389" stroke="#6CEABD" stroke-width="0.8" stroke-linecap="round"/>
</g>
</g>
<defs>
<clipPath id="clip0_757_20733">
<rect width="50.8696" height="52" fill="white" transform="translate(0 0.5)"/>
</clipPath>
</defs>
</svg>
