<svg width="24" height="24" viewBox="0 0 24 24" fill="none" xmlns="http://www.w3.org/2000/svg">
<path d="M10.5183 20.1136C10.3611 20.1136 10.2103 20.0511 10.0992 19.94C9.98803 19.8288 9.92559 19.6781 9.92559 19.5209V13.8222L4.43136 7.77971C4.21507 7.54138 4.07262 7.24539 4.02129 6.92767C3.96995 6.60996 4.01194 6.28417 4.14215 5.98985C4.27237 5.69553 4.48522 5.44533 4.75486 5.26963C5.0245 5.09392 5.33935 5.00025 5.66119 5H18.3388C18.6607 5.00025 18.9755 5.09392 19.2451 5.26963C19.5148 5.44533 19.7276 5.69553 19.8578 5.98985C19.9881 6.28417 20.03 6.60996 19.9787 6.92767C19.9274 7.24539 19.7849 7.54138 19.5686 7.77971L14.0744 13.8222V17.1501C14.0744 17.2389 14.0544 17.3266 14.0159 17.4066C13.9774 17.4866 13.9215 17.5569 13.8522 17.6124L10.8887 19.9832C10.7836 20.0675 10.653 20.1135 10.5183 20.1136ZM5.66119 6.18538C5.56896 6.18561 5.47877 6.21257 5.40155 6.26299C5.32432 6.31341 5.26336 6.38513 5.22605 6.46947C5.18874 6.55381 5.17667 6.64716 5.19131 6.73822C5.20595 6.82928 5.24667 6.91415 5.30854 6.98255L10.9569 13.2058C11.0536 13.3122 11.1084 13.4502 11.111 13.594V18.2881L12.889 16.8538V13.594C12.8887 13.4461 12.9436 13.3034 13.0431 13.1939L18.6915 6.97069C18.7496 6.90199 18.7872 6.81822 18.7998 6.72907C18.8124 6.63993 18.7995 6.54904 18.7626 6.46691C18.7257 6.38478 18.6664 6.31476 18.5914 6.26494C18.5164 6.21512 18.4288 6.18754 18.3388 6.18538H5.66119Z" fill="white"/>
</svg>