<svg width="92" height="32" fill="none" xmlns="http://www.w3.org/2000/svg"><path fill-rule="evenodd" clip-rule="evenodd" d="M56.042 10.51c-1.465 0-2.625.305-3.785.974 0-3.346 0-6.45.123-7.484l-7.143 1.278v.608l.732.122c.977.182 1.282.73 1.466 2.008.183 2.555.122 16.002 0 18.254 1.892.426 3.907.73 5.921.73 5.617 0 8.974-3.468 8.974-8.944.062-4.381-2.686-7.545-6.288-7.545zM53.6 25.784c-.427 0-.976 0-1.282-.122-.122-1.46-.183-7.666-.122-13.143.61-.182 1.038-.304 1.588-.304 2.32 0 3.602 2.738 3.602 6.085 0 4.26-1.588 7.484-3.786 7.484zM18.62 4.426H0v.973l1.038.122c1.404.183 1.892 1.034 2.137 3.042.305 3.773.183 10.649 0 13.934-.184 2.008-.733 2.92-2.137 3.043L0 25.722v.852h11.966v-.852l-1.282-.182c-1.405-.122-1.893-1.035-2.137-3.043-.122-1.4-.183-3.59-.183-6.328l2.564.122c1.587 0 2.32 1.278 2.625 3.042h.976v-7.545h-.976c-.306 1.765-1.038 3.043-2.625 3.043l-2.564.121c0-3.59.122-6.936.183-8.944h3.724c2.869 0 4.334 1.764 5.372 4.928l1.038-.304-.061-6.206z" fill="#fff"/><path fill-rule="evenodd" clip-rule="evenodd" d="M24.602 10.328c5.312 0 7.937 3.59 7.937 8.336 0 4.503-2.93 8.336-8.242 8.336-5.31 0-7.936-3.59-7.936-8.336 0-4.563 2.991-8.336 8.241-8.336zm-.305 1.035c-2.32 0-2.93 3.164-2.93 7.24 0 4.016 1.038 7.241 3.174 7.241 2.442 0 3.053-3.164 3.053-7.24 0-3.956-1.038-7.241-3.297-7.241zm39.438 7.362c0-4.32 2.747-8.458 8.119-8.458 4.457 0 6.532 3.286 6.532 7.606h-9.829c-.122 3.894 1.77 6.754 5.617 6.754 1.71 0 2.564-.426 3.602-1.156l.427.548c-1.038 1.46-3.358 2.92-6.349 2.92-4.7.061-8.12-3.346-8.12-8.214zm4.883-1.947l4.945-.122c0-2.13-.305-5.293-2.136-5.293-1.77 0-2.687 2.981-2.809 5.415zm22.405-5.598c-1.282-.548-2.93-.852-4.884-.852-3.907 0-6.349 2.312-6.349 5.05s1.77 3.895 4.335 4.746c2.625.974 3.357 1.704 3.357 2.921 0 1.278-.976 2.434-2.625 2.434-2.014 0-3.48-1.156-4.64-4.32l-.732.182.122 4.625c1.282.547 3.602.973 5.617.973 4.15 0 6.776-2.13 6.776-5.354 0-2.19-1.16-3.469-3.907-4.503-2.93-1.156-4.03-1.886-4.03-3.286 0-1.4.977-2.312 2.198-2.312 1.893 0 3.175 1.156 4.152 4.016l.732-.182-.122-4.138zm-44.748-.426c-1.77-1.034-4.945-.547-6.655 3.286l.123-3.712-7.082 1.4v.608l.733.122c.976.121 1.404.608 1.465 2.008.183 2.555.122 6.936 0 9.188-.122 1.277-.55 1.886-1.465 2.008l-.733.121v.852h9.829v-.852l-1.282-.122c-1.038-.121-1.404-.73-1.465-2.008-.184-2.007-.184-6.023-.123-8.518.55-.73 2.87-1.4 4.945 0l1.71-4.38z" fill="#fff"/></svg>