<svg width="20" height="20" viewBox="0 0 20 20" fill="none" xmlns="http://www.w3.org/2000/svg">
<g id="free-icon-gift-1005638 1" clip-path="url(#clip0_1477_42234)">
<g id="Group">
<g id="Group_2">
<path id="Vector" d="M18.8127 5.84188L17.8107 3.08895C17.4793 2.17817 16.4686 1.70681 15.5578 2.03841L13.7156 2.70895C13.7186 2.69095 13.7216 2.67294 13.7242 2.65477C13.845 1.80528 13.4893 0.985165 12.7728 0.461024C12.0954 -0.034562 11.2285 -0.137453 10.4539 0.185672C9.67933 0.508836 9.14261 1.19727 9.01863 2.02442L8.75543 3.72196L7.39441 2.51888C6.76554 1.96298 5.91187 1.78048 5.11082 2.03095C3.34711 2.58212 2.86449 4.8418 4.23211 6.06923C4.25668 6.09126 4.28176 6.11251 4.30707 6.13345L2.34371 6.84805C1.43093 7.18028 0.960857 8.18798 1.2932 9.10095L2.29519 11.8539L3.54293 11.4025V18.2422C3.54293 19.2115 4.32363 20 5.29289 20C5.46437 20 16.6481 20 17.0113 20C17.9805 20 18.7691 19.2115 18.7691 18.2422V9.37528C18.3926 9.37528 9.105 9.37528 9.105 9.37528L18.8127 5.84188ZM15.9586 3.13958C16.2621 3.02911 16.5991 3.18618 16.7095 3.48977L17.3108 5.14153L11.8049 7.14552L11.0034 4.94317L15.9586 3.13958ZM10.1771 2.20098C10.2401 1.78013 10.5123 1.43106 10.905 1.2672C11.2942 1.10485 11.7342 1.15317 12.0809 1.40681C12.8682 1.98274 12.6794 3.08598 11.7816 3.4129C11.6311 3.46766 10.6499 3.82481 10.6025 3.84204L9.88199 4.10427L10.1771 2.20098ZM9.90211 5.34395L10.7037 7.54626C10.3186 7.68645 9.98761 7.80688 9.6025 7.94708L8.80094 5.74473L9.90211 5.34395ZM5.46031 3.14934C5.86144 3.02403 6.29531 3.1113 6.61828 3.39677L8.13703 4.73934C7.6964 4.89973 6.65453 5.27895 6.23195 5.4327C5.80656 5.58743 5.3516 5.49934 5.01476 5.197C4.31 4.5645 4.57863 3.42489 5.46031 3.14934ZM2.99551 10.3519L2.39429 8.70012C2.28351 8.39595 2.44011 8.05989 2.74449 7.94907L7.69976 6.14552L8.50133 8.34782L2.99551 10.3519ZM12.9098 10.5471H17.605V18.2422C17.605 18.5653 17.3343 18.8282 17.0112 18.8282H12.9098V10.5471ZM10.5661 10.5471H11.7458V18.8281H10.5661V10.5471ZM9.40207 10.5471V18.8281H5.29281C4.96972 18.8281 4.70687 18.5653 4.70687 18.2422V10.976L5.88523 10.5471H9.40207Z" fill="#6CEABD"/>
</g>
</g>
</g>
<defs>
<clipPath id="clip0_1477_42234">
<rect width="20" height="20" fill="white"/>
</clipPath>
</defs>
</svg>
