<svg width="154" height="44" viewBox="0 0 154 44" fill="none" xmlns="http://www.w3.org/2000/svg">
<g clip-path="url(#clip0_808_5633)">
<path fill-rule="evenodd" clip-rule="evenodd" d="M19.86 0.0969306C13.0692 0.735167 8.51216 4.00804 5.36183 7.48005C1.87706 11.3427 -0.402723 16.7702 0.0593595 23.9261C0.809925 35.5165 11.8157 44.9471 24.0136 43.6961C35.4866 42.5218 44.5444 32.6802 43.6177 19.8312C42.8161 8.75141 32.4715 -1.09019 19.86 0.0969306ZM20.3885 24.2529C19.8192 27.9496 18.8567 31.1995 16.2833 33.6707C15.2621 34.6485 15.0069 35.0187 13.0641 35.0238C12.1297 35.0238 11.8259 35.0952 11.277 34.5668C11.0446 34.3795 10.858 34.1416 10.7315 33.8713C10.605 33.601 10.5418 33.3054 10.5469 33.0069L10.5622 10.4261C10.6286 9.87726 11.0957 9.3437 11.4098 9.08585C12.0071 8.59313 12.482 8.73354 13.3985 8.72844C14.7643 8.72844 15.2621 9.03224 16.462 10.2398C19.089 12.9382 21.2411 18.7334 20.3885 24.2529ZM23.212 24.1406C22.441 18.3811 24.828 11.6694 28.4634 9.19052C29.2293 8.67993 29.2089 8.72333 30.3373 8.72588C31.1951 8.72588 31.6495 8.58803 32.2265 9.07308C32.5813 9.37178 33.0536 9.83897 33.1021 10.5181C33.2017 11.9528 33.1021 17.6842 33.1021 19.5989V28.5674C33.1021 30.0532 33.1557 31.6309 33.1021 33.1116C33.0927 33.3956 33.0213 33.6742 32.893 33.9277C32.7647 34.1813 32.5825 34.4038 32.3592 34.5796C31.7669 35.1284 31.4453 35.0212 30.442 35.0212C29.0046 35.0212 28.6549 34.9497 27.2891 33.6043C24.9276 31.2786 23.6741 27.6075 23.212 24.1482V24.1406Z" fill="#FCFCFC"/>
<path fill-rule="evenodd" clip-rule="evenodd" d="M13.6119 10.8628V31.0132C13.6119 32.4556 13.2392 33.5023 14.4646 32.5271C18.7101 29.1419 19.6139 20.0841 16.8261 14.4012C16.3385 13.4081 14.8067 10.8526 13.6119 10.8628Z" fill="#FCFCFC"/>
<path fill-rule="evenodd" clip-rule="evenodd" d="M30.0249 32.933V10.8398C28.6591 11.0007 27.0788 13.7221 26.4661 15.2054C24.8093 19.2161 24.7888 24.4751 26.4278 28.496C27.0456 30.0125 28.6029 32.7671 30.002 32.933" fill="#FCFCFC"/>
<path d="M64.5083 20.2831V13.7858H59.3513L59.336 16.2902H61.4882L61.4703 18.1896C59.9538 18.3683 58.8152 18.3505 58.0774 17.3727C56.801 15.6954 56.7014 9.29518 63.214 11.9171C63.6256 11.0963 63.9672 10.2423 64.2351 9.36411C58.9633 7.68427 54.0387 9.03478 54.0744 14.8785C54.0897 17.6867 55.1594 19.5299 57.0869 20.4413C59.3845 21.5238 62.2438 20.8039 64.5134 20.2984" fill="white"/>
<path d="M77.4844 20.7605L79.7386 20.8064C80.3335 20.8064 80.0092 20.3571 80.5913 19.9001C81.2321 20.3009 81.444 20.7886 82.5341 20.9213C85.4164 21.3017 86.509 18.7411 86.4605 15.9431C86.4273 14.0284 85.8682 12.6242 84.7424 11.7945C84.3961 11.5711 84.0065 11.4234 83.5991 11.3609C83.1917 11.2984 82.7757 11.3227 82.3784 11.432C81.1376 11.7435 81.1657 12.3587 80.5913 12.6906L80.7215 8.04681L77.4869 8.03149L77.4844 20.7605ZM81.4797 14.0003C83.4966 12.8949 83.688 17.7786 82.4396 18.2918C81.1913 18.8049 80.7726 17.6867 80.7087 16.686C80.6347 15.5167 80.6015 14.4828 81.4797 14.0003Z" fill="white"/>
<path d="M138.53 12.6472C136 9.74963 132.722 11.792 132.693 16.0758C132.678 18.9581 134.026 21.5851 136.811 20.8677C137.873 20.592 137.912 20.1018 138.547 19.6346C139.466 20.8371 138.57 20.9417 141.69 20.7835V8.07234L138.455 8.03149L138.53 12.6472ZM136.998 13.9773C138.167 13.6046 138.616 14.6666 138.695 15.7082C138.782 16.8979 138.695 18.1922 137.69 18.3837C135.305 18.8432 135.52 14.4547 137.008 13.9773H136.998Z" fill="white"/>
<path d="M99.1992 20.7553L102.444 20.8115V16.8493C104.31 16.7421 105.64 16.7421 106.761 15.6954C107.642 14.8734 108.224 13.0097 107.741 11.3707C107.335 9.98702 106.268 9.16242 104.632 8.90968C103.741 8.77182 100.037 8.71055 99.1992 8.86117V20.7553ZM102.444 14.1534V11.4524C103.616 11.3503 104.711 11.4856 104.611 12.7953C104.527 13.9364 103.649 14.2581 102.444 14.1534Z" fill="white"/>
<path d="M151.882 20.2985V18.0238C150.815 18.3021 147.101 19.8645 146.756 17.0231H152.465C152.666 14.2149 152.084 12.2236 149.748 11.5572C143.315 9.71656 141.926 17.5464 145.076 19.982C146.771 21.2967 149.843 21.2252 151.872 20.2934M146.838 14.9782C147.093 13.0175 149.391 13.0099 149.575 14.9986L146.838 14.9782Z" fill="white"/>
<path d="M120.78 11.4398C115.151 12.3691 116.019 22.0856 122.879 20.8857C128.225 19.9411 127.671 10.3139 120.78 11.4526M120.415 16.6963C120.16 12.8669 122.968 12.8362 123.142 15.7211C123.203 16.8316 123.111 18.2434 122.207 18.5293C120.926 18.9276 120.499 17.7558 120.415 16.6835V16.6963Z" fill="white"/>
<path d="M69.9833 11.4524C66.9376 12.0243 66.039 14.516 66.4679 17.2349C67.3487 22.8284 76.8303 22.3408 75.5666 15.024C75.1351 12.5298 72.9473 10.8934 69.9833 11.4499M69.728 17.2859C68.9034 13.3289 71.9006 12.6753 72.309 15.121C72.6001 16.8494 72.2707 19.2849 70.4352 18.4628C70.0318 18.279 69.8557 17.8552 69.7382 17.2885L69.728 17.2859Z" fill="white"/>
<path d="M91.5516 11.4398C85.9224 12.3691 86.7904 22.0856 93.6502 20.8857C98.9935 19.9411 98.442 10.3139 91.5516 11.4526M92.0163 13.8855C94.2195 12.6397 94.5028 17.9192 93.0655 18.5012C90.8036 19.4024 90.63 14.6616 92.0163 13.8727V13.8855Z" fill="white"/>
<path d="M112.611 12.9689L112.023 11.4881H109.705L109.654 20.7911H112.868C112.868 19.3053 112.774 17.5105 112.868 16.063C113.004 14.1126 114.244 14.4981 115.968 14.3857C116.024 13.5943 116.32 12.0881 116.157 11.4141C114.975 11.2124 114.066 11.4141 113.285 12.254C113.029 12.5093 112.909 12.7646 112.603 12.9535" fill="white"/>
<path fill-rule="evenodd" clip-rule="evenodd" d="M128.887 17.9855C126.914 18.6059 127.866 21.7664 130.281 20.8959C132.017 20.2704 131.471 17.1711 128.887 17.9855Z" fill="#6CEABD"/>
<path d="M54.7676 35.3836V27.3404H56.4681V33.9816H59.9164V35.3836H54.7676Z" fill="white"/>
<path d="M61.0111 35.3836V29.3512H62.6842V35.3836H61.0111ZM61.8516 28.5736C61.6028 28.5736 61.3895 28.4911 61.2114 28.3261C61.036 28.1586 60.9483 27.9583 60.9483 27.7252C60.9483 27.4948 61.036 27.2972 61.2114 27.1322C61.3895 26.9646 61.6028 26.8809 61.8516 26.8809C62.1003 26.8809 62.3124 26.9646 62.4878 27.1322C62.6659 27.2972 62.7549 27.4948 62.7549 27.7252C62.7549 27.9583 62.6659 28.1586 62.4878 28.3261C62.3124 28.4911 62.1003 28.5736 61.8516 28.5736Z" fill="white"/>
<path d="M66.75 35.5015C66.1321 35.5015 65.6006 35.3705 65.1555 35.1087C64.713 34.8443 64.3726 34.4777 64.1344 34.009C63.8987 33.5404 63.7809 33.001 63.7809 32.391C63.7809 31.7731 63.9 31.2311 64.1383 30.765C64.3792 30.2964 64.7209 29.9311 65.1633 29.6693C65.6058 29.4049 66.1321 29.2726 66.7421 29.2726C67.2684 29.2726 67.7292 29.3682 68.1246 29.5593C68.5199 29.7505 68.8328 30.0188 69.0632 30.3644C69.2936 30.7101 69.4206 31.1159 69.4442 31.5819H67.8654C67.8209 31.2808 67.703 31.0386 67.5119 30.8554C67.3234 30.6695 67.076 30.5765 66.7696 30.5765C66.5104 30.5765 66.284 30.6472 66.0902 30.7886C65.8991 30.9274 65.7498 31.1303 65.6425 31.3973C65.5351 31.6644 65.4815 31.9878 65.4815 32.3674C65.4815 32.7523 65.5338 33.0796 65.6386 33.3492C65.7459 33.6189 65.8965 33.8245 66.0902 33.9658C66.284 34.1072 66.5104 34.1779 66.7696 34.1779C66.9608 34.1779 67.1323 34.1387 67.2841 34.0601C67.4386 33.9816 67.5656 33.8677 67.6651 33.7184C67.7672 33.5666 67.834 33.3846 67.8654 33.1725H69.4442C69.418 33.6333 69.2923 34.0392 69.0672 34.39C68.8446 34.7382 68.537 35.0105 68.1442 35.2069C67.7515 35.4033 67.2867 35.5015 66.75 35.5015Z" fill="white"/>
<path d="M72.1884 31.8961V35.3836H70.5154V27.3404H72.1413V30.4155H72.212C72.3482 30.0594 72.5681 29.7806 72.8718 29.579C73.1755 29.3747 73.5565 29.2726 74.0147 29.2726C74.4336 29.2726 74.7988 29.3643 75.1104 29.5475C75.4246 29.7282 75.6681 29.9887 75.8409 30.3291C76.0163 30.6669 76.1027 31.0714 76.1001 31.5427V35.3836H74.427V31.8411C74.4297 31.4693 74.3354 31.18 74.1443 30.9732C73.9558 30.7663 73.6913 30.6629 73.3509 30.6629C73.1232 30.6629 72.9215 30.7114 72.7461 30.8082C72.5733 30.9051 72.4372 31.0465 72.3377 31.2324C72.2408 31.4157 72.1911 31.6369 72.1884 31.8961Z" fill="white"/>
<path d="M80.6254 29.3512V30.6079H76.9926V29.3512H80.6254ZM77.8173 27.9059H79.4904V33.5299C79.4904 33.6844 79.514 33.8048 79.5611 33.8912C79.6082 33.975 79.6737 34.0339 79.7575 34.068C79.8439 34.102 79.9434 34.119 80.056 34.119C80.1345 34.119 80.213 34.1125 80.2916 34.0994C80.3701 34.0837 80.4304 34.0719 80.4723 34.064L80.7354 35.309C80.6516 35.3352 80.5338 35.3653 80.3819 35.3993C80.2301 35.436 80.0455 35.4583 79.8282 35.4661C79.425 35.4818 79.0715 35.4281 78.7678 35.3051C78.4667 35.182 78.2323 34.9909 78.0648 34.7317C77.8972 34.4725 77.8147 34.1452 77.8173 33.7498V27.9059Z" fill="white"/>
<path d="M81.7153 37.6458V29.3512H83.3648V30.3644H83.4394C83.5127 30.2021 83.6187 30.0372 83.7575 29.8696C83.8989 29.6994 84.0822 29.558 84.3073 29.4454C84.5351 29.3302 84.8179 29.2726 85.1557 29.2726C85.5955 29.2726 86.0013 29.3878 86.3731 29.6182C86.7449 29.846 87.0421 30.1903 87.2647 30.6511C87.4872 31.1093 87.5985 31.684 87.5985 32.3753C87.5985 33.0481 87.4898 33.6163 87.2725 34.0797C87.0578 34.5406 86.7646 34.8901 86.3928 35.1284C86.0236 35.364 85.6099 35.4818 85.1517 35.4818C84.8271 35.4818 84.5508 35.4281 84.323 35.3208C84.0979 35.2134 83.9133 35.0786 83.7693 34.9163C83.6253 34.7513 83.5153 34.5851 83.4394 34.4175H83.3883V37.6458H81.7153ZM83.353 32.3674C83.353 32.7261 83.4027 33.039 83.5022 33.306C83.6017 33.5731 83.7457 33.7813 83.9342 33.9305C84.1228 34.0771 84.3518 34.1504 84.6215 34.1504C84.8938 34.1504 85.1242 34.0758 85.3127 33.9266C85.5013 33.7747 85.644 33.5653 85.7408 33.2982C85.8403 33.0285 85.8901 32.7183 85.8901 32.3674C85.8901 32.0192 85.8416 31.7128 85.7448 31.4484C85.6479 31.184 85.5052 30.9771 85.3167 30.8279C85.1282 30.6786 84.8964 30.604 84.6215 30.604C84.3492 30.604 84.1188 30.676 83.9303 30.82C83.7444 30.964 83.6017 31.1682 83.5022 31.4327C83.4027 31.6971 83.353 32.0087 83.353 32.3674Z" fill="white"/>
<path d="M88.7139 35.3836V29.3512H90.3359V30.4037H90.3987C90.5087 30.0293 90.6933 29.7465 90.9525 29.5554C91.2117 29.3617 91.5102 29.2648 91.8479 29.2648C91.9317 29.2648 92.022 29.27 92.1189 29.2805C92.2158 29.291 92.3009 29.3054 92.3742 29.3237V30.8082C92.2956 30.7847 92.187 30.7637 92.0482 30.7454C91.9094 30.7271 91.7824 30.7179 91.6672 30.7179C91.4211 30.7179 91.2012 30.7716 91.0074 30.8789C90.8163 30.9837 90.6645 31.1303 90.5519 31.3188C90.4419 31.5073 90.3869 31.7246 90.3869 31.9707V35.3836H88.7139Z" fill="white"/>
<path d="M95.684 35.5015C95.0739 35.5015 94.5463 35.3718 94.1012 35.1126C93.6588 34.8508 93.3171 34.4869 93.0762 34.0208C92.8353 33.5522 92.7149 33.0089 92.7149 32.391C92.7149 31.7678 92.8353 31.2232 93.0762 30.7572C93.3171 30.2885 93.6588 29.9246 94.1012 29.6654C94.5463 29.4035 95.0739 29.2726 95.684 29.2726C96.294 29.2726 96.8203 29.4035 97.2628 29.6654C97.7079 29.9246 98.0509 30.2885 98.2917 30.7572C98.5326 31.2232 98.6531 31.7678 98.6531 32.391C98.6531 33.0089 98.5326 33.5522 98.2917 34.0208C98.0509 34.4869 97.7079 34.8508 97.2628 35.1126C96.8203 35.3718 96.294 35.5015 95.684 35.5015ZM95.6918 34.2054C95.9694 34.2054 96.2011 34.1269 96.387 33.9698C96.5729 33.8101 96.7129 33.5927 96.8072 33.3178C96.9041 33.0429 96.9525 32.73 96.9525 32.3792C96.9525 32.0283 96.9041 31.7155 96.8072 31.4405C96.7129 31.1656 96.5729 30.9483 96.387 30.7886C96.2011 30.6289 95.9694 30.549 95.6918 30.549C95.4117 30.549 95.176 30.6289 94.9849 30.7886C94.7964 30.9483 94.6537 31.1656 94.5568 31.4405C94.4626 31.7155 94.4154 32.0283 94.4154 32.3792C94.4154 32.73 94.4626 33.0429 94.5568 33.3178C94.6537 33.5927 94.7964 33.8101 94.9849 33.9698C95.176 34.1269 95.4117 34.2054 95.6918 34.2054Z" fill="white"/>
<path d="M99.741 29.3512H101.414V35.6821C101.414 36.1482 101.322 36.5252 101.139 36.8132C100.956 37.1012 100.693 37.312 100.35 37.4455C100.009 37.579 99.6022 37.6458 99.1283 37.6458C99.0707 37.6458 99.0157 37.6445 98.9633 37.6419C98.9083 37.6419 98.8507 37.6406 98.7905 37.6379V36.3301C98.835 36.3327 98.8743 36.3341 98.9083 36.3341C98.9398 36.3367 98.9738 36.338 99.0105 36.338C99.2801 36.338 99.4687 36.2804 99.576 36.1652C99.686 36.0526 99.741 35.8824 99.741 35.6546V29.3512ZM100.574 28.5736C100.327 28.5736 100.115 28.4911 99.9373 28.3261C99.7593 28.1586 99.6703 27.9583 99.6703 27.7252C99.6703 27.4948 99.7593 27.2972 99.9373 27.1322C100.115 26.9646 100.327 26.8809 100.574 26.8809C100.825 26.8809 101.038 26.9646 101.214 27.1322C101.392 27.2972 101.481 27.4948 101.481 27.7252C101.481 27.9583 101.392 28.1586 101.214 28.3261C101.038 28.4911 100.825 28.5736 100.574 28.5736Z" fill="white"/>
<path d="M105.503 35.5015C104.883 35.5015 104.349 35.3758 103.901 35.1244C103.456 34.8705 103.113 34.5118 102.872 34.0483C102.631 33.5823 102.511 33.0311 102.511 32.3949C102.511 31.7744 102.631 31.2298 102.872 30.7611C103.113 30.2924 103.452 29.9272 103.889 29.6654C104.329 29.4035 104.845 29.2726 105.437 29.2726C105.835 29.2726 106.205 29.3368 106.548 29.4651C106.894 29.5907 107.195 29.7806 107.451 30.0345C107.711 30.2885 107.912 30.6079 108.056 30.9928C108.2 31.3751 108.272 31.8228 108.272 32.336V32.7955H103.178V31.7587H106.697C106.697 31.5178 106.645 31.3044 106.54 31.1185C106.435 30.9326 106.29 30.7873 106.104 30.6826C105.921 30.5752 105.708 30.5215 105.464 30.5215C105.21 30.5215 104.985 30.5804 104.789 30.6983C104.595 30.8135 104.443 30.9693 104.333 31.1656C104.223 31.3594 104.167 31.5754 104.164 31.8136V32.7994C104.164 33.0979 104.219 33.3558 104.329 33.5731C104.442 33.7904 104.6 33.958 104.804 34.0758C105.009 34.1936 105.251 34.2525 105.531 34.2525C105.717 34.2525 105.887 34.2264 106.041 34.174C106.196 34.1216 106.328 34.0431 106.438 33.9384C106.548 33.8336 106.632 33.7053 106.689 33.5535L108.237 33.6556C108.158 34.0274 107.997 34.352 107.754 34.6296C107.513 34.9045 107.201 35.1192 106.819 35.2737C106.439 35.4255 106.001 35.5015 105.503 35.5015Z" fill="white"/>
<path d="M110.88 33.6477L110.884 31.6408H111.127L113.06 29.3512H114.98L112.384 32.3831H111.987L110.88 33.6477ZM109.364 35.3836V27.3404H111.037V35.3836H109.364ZM113.134 35.3836L111.359 32.7562L112.474 31.5741L115.094 35.3836H113.134Z" fill="white"/>
<path d="M119.01 29.3512V30.6079H115.377V29.3512H119.01ZM116.202 27.9059H117.875V33.5299C117.875 33.6844 117.898 33.8048 117.945 33.8912C117.992 33.975 118.058 34.0339 118.142 34.068C118.228 34.102 118.328 34.119 118.44 34.119C118.519 34.119 118.597 34.1125 118.676 34.0994C118.754 34.0837 118.815 34.0719 118.856 34.064L119.12 35.309C119.036 35.3352 118.918 35.3653 118.766 35.3993C118.614 35.436 118.43 35.4583 118.212 35.4661C117.809 35.4818 117.456 35.4281 117.152 35.3051C116.851 35.182 116.617 34.9909 116.449 34.7317C116.281 34.4725 116.199 34.1452 116.202 33.7498V27.9059Z" fill="white"/>
<path d="M120.099 35.3836V29.3512H121.773V35.3836H120.099ZM120.94 28.5736C120.691 28.5736 120.478 28.4911 120.3 28.3261C120.124 28.1586 120.037 27.9583 120.037 27.7252C120.037 27.4948 120.124 27.2972 120.3 27.1322C120.478 26.9646 120.691 26.8809 120.94 26.8809C121.189 26.8809 121.401 26.9646 121.576 27.1322C121.754 27.2972 121.843 27.4948 121.843 27.7252C121.843 27.9583 121.754 28.1586 121.576 28.3261C121.401 28.4911 121.189 28.5736 120.94 28.5736Z" fill="white"/>
<path d="M125.838 35.5015C125.228 35.5015 124.701 35.3718 124.256 35.1126C123.813 34.8508 123.471 34.4869 123.231 34.0208C122.99 33.5522 122.869 33.0089 122.869 32.391C122.869 31.7678 122.99 31.2232 123.231 30.7572C123.471 30.2885 123.813 29.9246 124.256 29.6654C124.701 29.4035 125.228 29.2726 125.838 29.2726C126.448 29.2726 126.975 29.4035 127.417 29.6654C127.862 29.9246 128.205 30.2885 128.446 30.7572C128.687 31.2232 128.807 31.7678 128.807 32.391C128.807 33.0089 128.687 33.5522 128.446 34.0208C128.205 34.4869 127.862 34.8508 127.417 35.1126C126.975 35.3718 126.448 35.5015 125.838 35.5015ZM125.846 34.2054C126.124 34.2054 126.355 34.1269 126.541 33.9698C126.727 33.8101 126.867 33.5927 126.962 33.3178C127.058 33.0429 127.107 32.73 127.107 32.3792C127.107 32.0283 127.058 31.7155 126.962 31.4405C126.867 31.1656 126.727 30.9483 126.541 30.7886C126.355 30.6289 126.124 30.549 125.846 30.549C125.566 30.549 125.33 30.6289 125.139 30.7886C124.951 30.9483 124.808 31.1656 124.711 31.4405C124.617 31.7155 124.57 32.0283 124.57 32.3792C124.57 32.73 124.617 33.0429 124.711 33.3178C124.808 33.5927 124.951 33.8101 125.139 33.9698C125.33 34.1269 125.566 34.2054 125.846 34.2054Z" fill="white"/>
<path d="M131.568 31.8961V35.3836H129.895V29.3512H131.49V30.4155H131.561C131.694 30.0647 131.918 29.7871 132.232 29.5829C132.546 29.3761 132.927 29.2726 133.375 29.2726C133.794 29.2726 134.159 29.3643 134.471 29.5475C134.782 29.7308 135.024 29.9927 135.197 30.333C135.37 30.6708 135.457 31.074 135.457 31.5427V35.3836H133.783V31.8411C133.786 31.472 133.692 31.184 133.501 30.9771C133.31 30.7677 133.046 30.6629 132.711 30.6629C132.486 30.6629 132.287 30.7114 132.114 30.8082C131.944 30.9051 131.811 31.0465 131.714 31.2324C131.619 31.4157 131.571 31.6369 131.568 31.8961Z" fill="white"/>
<path d="M139.524 35.5015C138.904 35.5015 138.37 35.3758 137.922 35.1244C137.477 34.8705 137.134 34.5118 136.893 34.0483C136.652 33.5823 136.532 33.0311 136.532 32.3949C136.532 31.7744 136.652 31.2298 136.893 30.7611C137.134 30.2924 137.473 29.9272 137.91 29.6654C138.35 29.4035 138.866 29.2726 139.458 29.2726C139.855 29.2726 140.226 29.3368 140.569 29.4651C140.915 29.5907 141.216 29.7806 141.472 30.0345C141.731 30.2885 141.933 30.6079 142.077 30.9928C142.221 31.3751 142.293 31.8228 142.293 32.336V32.7955H137.199V31.7587H140.718C140.718 31.5178 140.666 31.3044 140.561 31.1185C140.456 30.9326 140.311 30.7873 140.125 30.6826C139.942 30.5752 139.729 30.5215 139.485 30.5215C139.231 30.5215 139.006 30.5804 138.81 30.6983C138.616 30.8135 138.464 30.9693 138.354 31.1656C138.244 31.3594 138.188 31.5754 138.185 31.8136V32.7994C138.185 33.0979 138.24 33.3558 138.35 33.5731C138.463 33.7904 138.621 33.958 138.825 34.0758C139.029 34.1936 139.272 34.2525 139.552 34.2525C139.738 34.2525 139.908 34.2264 140.062 34.174C140.217 34.1216 140.349 34.0431 140.459 33.9384C140.569 33.8336 140.653 33.7053 140.71 33.5535L142.258 33.6556C142.179 34.0274 142.018 34.352 141.775 34.6296C141.534 34.9045 141.222 35.1192 140.84 35.2737C140.46 35.4255 140.022 35.5015 139.524 35.5015Z" fill="white"/>
<path d="M145.058 31.8961V35.3836H143.385V29.3512H144.979V30.4155H145.05C145.184 30.0647 145.407 29.7871 145.722 29.5829C146.036 29.3761 146.417 29.2726 146.865 29.2726C147.283 29.2726 147.649 29.3643 147.96 29.5475C148.272 29.7308 148.514 29.9927 148.687 30.333C148.86 30.6708 148.946 31.074 148.946 31.5427V35.3836H147.273V31.8411C147.276 31.472 147.181 31.184 146.99 30.9771C146.799 30.7677 146.536 30.6629 146.201 30.6629C145.976 30.6629 145.777 30.7114 145.604 30.8082C145.434 30.9051 145.3 31.0465 145.203 31.2324C145.109 31.4157 145.061 31.6369 145.058 31.8961Z" fill="white"/>
</g>
<defs>
<clipPath id="clip0_808_5633">
<rect width="154" height="44" fill="white"/>
</clipPath>
</defs>
</svg>
