<svg width="24" height="24" viewBox="0 0 24 24" fill="none" xmlns="http://www.w3.org/2000/svg">
<g id="icon purple" clip-path="url(#clip0_2589_46375)">
<g id="Group 105">
<g id="Group">
<path id="Vector" d="M20.8161 2.44881C20.2383 1.87103 17.8494 0.126585 12.4827 0.126585C12.4827 0.126585 6.18274 -0.240082 3.07163 2.59325C1.3383 4.32658 0.749408 6.79325 0.682741 9.90436C0.616074 13.0155 0.538297 18.8155 6.18274 20.4044V22.7933C6.18274 22.7933 6.18274 23.8044 6.76052 23.9488C7.56052 24.171 7.99385 23.4377 8.71607 22.6488C9.14941 22.2155 9.66052 21.5599 10.0939 21.0599C12.4827 21.2821 14.8716 21.1377 17.1939 20.5488C17.9939 20.2599 22.3383 19.7488 23.0605 13.8821C23.8605 7.94881 22.7716 4.18214 20.8161 2.44881ZM21.4716 13.5266C20.8939 18.3821 17.2716 18.671 16.6161 18.8821C14.5827 19.3933 12.5605 19.5377 10.4605 19.3933C10.4605 19.3933 7.99385 22.2933 7.27163 23.0821C7.19385 23.1599 7.04941 23.2266 6.90496 23.2266C6.76052 23.1488 6.76052 23.0044 6.76052 22.7933C6.76052 22.5821 6.76052 18.8044 6.76052 18.8044C1.98274 17.5044 2.27163 12.5044 2.3383 9.97103C2.41607 7.4377 2.91607 5.25992 4.37163 3.81547C6.98274 1.49325 12.3383 1.78214 12.3383 1.78214C16.8272 1.78214 19.005 3.15992 19.505 3.59325C21.2605 5.12659 22.0494 8.53769 21.4716 13.5266Z" fill="#7360F2"/>
</g>
<g id="Group_2">
<path id="Vector_2" d="M14.6619 10.0489C14.4397 10.0489 14.373 9.9045 14.373 9.68228C14.373 9.31561 14.2952 8.96005 14.0063 8.67116C13.7174 8.38228 13.4286 8.23783 13.0619 8.16005C12.9841 8.16005 12.9174 8.16005 12.8397 8.16005C12.6952 8.16005 12.5508 8.01561 12.5508 7.87116C12.5508 7.72672 12.6952 7.58228 12.8397 7.58228C12.9174 7.58228 12.9841 7.58228 13.1286 7.58228C13.6397 7.66005 14.1397 7.87116 14.5063 8.3045C14.873 8.73783 15.0174 9.24894 15.0174 9.74894C14.9508 9.98228 14.8063 10.0489 14.6619 10.0489Z" fill="#7360F2"/>
</g>
<g id="Group_3">
<path id="Vector_3" d="M16.1845 10.5599C15.9622 10.5599 15.8956 10.4155 15.8956 10.271C15.9734 9.3266 15.6067 8.39327 15.0289 7.73771C14.3734 7.01549 13.44 6.64882 12.4178 6.64882C12.2734 6.64882 12.1289 6.50438 12.1289 6.35993C12.1289 6.21549 12.2734 6.07104 12.4178 6.07104C13.5734 6.07104 14.6622 6.58216 15.4622 7.37105C16.1845 8.17105 16.6178 9.24882 16.5511 10.3377C16.4734 10.4155 16.4067 10.5599 16.1845 10.5599Z" fill="#7360F2"/>
</g>
<g id="Group_4">
<g id="Group_5">
<path id="Vector_4" d="M17.7841 11.2154C17.5619 11.2154 17.4952 11.0709 17.4952 10.9265C17.573 9.33761 16.9841 7.73761 15.8286 6.64872C14.7397 5.63761 13.2952 5.05983 11.8397 5.05983C11.6952 5.05983 11.5508 4.91539 11.5508 4.77094C11.5508 4.6265 11.6952 4.48205 11.8397 4.48205C13.5063 4.40427 15.0952 5.05983 16.2619 6.21539C17.4952 7.51539 18.1397 9.18205 18.073 10.9932C18.073 11.0709 17.9952 11.2154 17.7841 11.2154Z" fill="#7360F2"/>
</g>
</g>
<g id="Group_6">
<path id="Vector_5" d="M12.9271 13.8156C13.1493 13.8156 13.4382 13.7378 13.5826 13.5934L14.016 13.0156C14.3049 12.6489 14.8826 12.5823 15.2493 12.8711C15.616 13.0934 15.9715 13.3045 16.3382 13.5934C16.7049 13.8823 17.3493 14.3934 17.3493 14.3934C17.716 14.6823 17.7826 15.1156 17.4937 15.4823C17.2715 15.9156 16.916 16.2823 16.5493 16.6378C16.2604 16.86 15.9715 17.0711 15.6049 17.0711C15.5271 17.0711 15.5271 17.0711 15.4604 17.0711C15.316 17.0711 15.1715 17.0711 15.0271 16.9934C14.1604 16.7045 13.2938 16.2711 12.416 15.76C11.616 15.3267 10.8937 14.8934 10.2382 14.3156C9.87153 14.0267 9.58264 13.7378 9.29375 13.4489H9.21597C8.92708 13.16 8.63819 12.7934 8.34931 12.4378C7.83819 11.7823 7.33819 11.06 6.90486 10.26C6.39375 9.46004 6.03819 8.59337 5.67153 7.64893C5.59375 7.50448 5.59375 7.36004 5.59375 7.21559C5.59375 7.13781 5.59375 7.13781 5.59375 7.07115C5.67153 6.70448 5.81597 6.41559 6.02708 6.1267C6.31597 5.69337 6.68264 5.3267 7.03819 5.03782C7.40486 4.81559 7.90486 4.89337 8.19375 5.18226C8.19375 5.18226 8.77153 5.90448 8.99375 6.19337C9.21597 6.48226 9.57153 6.99337 9.71597 7.28226C9.93819 7.71559 9.86042 8.2267 9.57153 8.51559L8.99375 8.94893C8.84931 9.09337 8.70486 9.38226 8.77153 9.60448C9.52708 11.7934 11.0382 13.2378 12.9271 13.8156Z" fill="#7360F2"/>
</g>
</g>
</g>
<defs>
<clipPath id="clip0_2589_46375">
<rect width="24" height="24" fill="white"/>
</clipPath>
</defs>
</svg>
