<svg width="20" height="20" viewBox="0 0 20 20" fill="none" xmlns="http://www.w3.org/2000/svg">
<g id="free-icon-chat-6386838 1" clip-path="url(#clip0_2601_18620)">
<g id="chat">
<path id="Vector" d="M10 11.25C9.31061 11.25 8.75 10.6894 8.75 10C8.75 9.31061 9.31061 8.75 10 8.75C10.6891 8.75 11.25 9.31061 11.25 10C11.25 10.6894 10.6891 11.25 10 11.25ZM19.375 10C19.375 15.1694 15.1697 19.375 10 19.375C8.63342 19.375 7.30988 19.0808 6.06262 18.5001L3.30872 19.3472C3.2486 19.3658 3.18665 19.375 3.125 19.375C2.98553 19.375 2.8479 19.3283 2.7359 19.2392C2.57477 19.1107 2.48688 18.9111 2.50153 18.7054L2.70355 15.878C1.36139 14.2136 0.625 12.1365 0.625 10C0.625 4.83063 4.83063 0.625 10 0.625C15.1697 0.625 19.375 4.83063 19.375 10ZM18.125 10C18.125 5.51971 14.48 1.875 10 1.875C5.51971 1.875 1.875 5.51971 1.875 10C1.875 11.9257 2.56592 13.7961 3.82019 15.2667C3.9267 15.3915 3.9798 15.5533 3.9682 15.7169L3.81348 17.8842L5.92926 17.2333C5.98907 17.2147 6.05133 17.2055 6.11298 17.2055C6.2088 17.2055 6.30402 17.2275 6.3913 17.2708C7.53052 17.8375 8.74451 18.125 10 18.125C14.48 18.125 18.125 14.4803 18.125 10ZM6.25 8.75C5.56061 8.75 5 9.31061 5 10C5 10.6894 5.56061 11.25 6.25 11.25C6.93939 11.25 7.5 10.6894 7.5 10C7.5 9.31061 6.93939 8.75 6.25 8.75ZM15 10C15 9.31061 14.4391 8.75 13.75 8.75C13.0609 8.75 12.5 9.31061 12.5 10C12.5 10.6894 13.0609 11.25 13.75 11.25C14.4391 11.25 15 10.6894 15 10Z" fill="white"/>
</g>
</g>
<defs>
<clipPath id="clip0_2601_18620">
<rect width="20" height="20" fill="white"/>
</clipPath>
</defs>
</svg>
