<svg width="20" height="20" viewBox="0 0 20 20" fill="none" xmlns="http://www.w3.org/2000/svg">
<g id="free-icon-back-3114883 1">
<path id="Vector" d="M17.2727 9.0999H4.48278L8.33227 5.2504C8.40173 5.18331 8.45714 5.10306 8.49525 5.01433C8.53337 4.9256 8.55343 4.83017 8.55427 4.7336C8.55511 4.63703 8.53671 4.54126 8.50014 4.45188C8.46357 4.3625 8.40957 4.2813 8.34128 4.21302C8.273 4.14473 8.1918 4.09073 8.10242 4.05416C8.01304 4.01759 7.91727 3.99919 7.8207 4.00003C7.72413 4.00087 7.6287 4.02093 7.53997 4.05905C7.45124 4.09716 7.37099 4.15257 7.3039 4.22203L2.21294 9.31299C2.07659 9.44937 2 9.63433 2 9.82718C2 10.02 2.07659 10.205 2.21294 10.3414L7.3039 15.4323C7.44106 15.5648 7.62477 15.6381 7.81547 15.6364C8.00616 15.6348 8.18857 15.5583 8.32341 15.4235C8.45825 15.2886 8.53474 15.1062 8.5364 14.9155C8.53805 14.7248 8.46475 14.5411 8.33227 14.4039L4.48278 10.5545H17.2727C17.4656 10.5545 17.6506 10.4778 17.787 10.3414C17.9234 10.205 18 10.0201 18 9.82718C18 9.63429 17.9234 9.4493 17.787 9.31291C17.6506 9.17652 17.4656 9.0999 17.2727 9.0999Z" fill="white"/>
</g>
</svg>
