<svg width="20" height="20" viewBox="0 0 20 20" fill="none" xmlns="http://www.w3.org/2000/svg">
<g id="Frame 1321315609">
<path id="Vector" d="M5.47528 20C4.97564 20 4.47599 19.8 3.97635 19.5C3.17691 18.9 2.67726 17.9 2.87712 16.9L3.4767 13L0.778609 10.2C0.0791043 9.5 -0.220683 8.4 0.179034 7.4C0.478821 6.4 1.27826 5.8 2.27755 5.6L6.07486 5L7.77366 1.5C8.17337 0.6 9.07274 0 10.072 0C11.0713 0 11.9707 0.6 12.4703 1.5L14.0692 5L17.7666 5.6C18.7659 5.7 19.5653 6.4 19.8651 7.4C20.1649 8.4 19.965 9.4 19.2655 10.2L16.5674 13L17.167 16.9C17.3669 17.9 16.9671 19 16.0678 19.5C15.2684 20.1 14.2691 20.1 13.3697 19.7L10.072 17.8L6.77436 19.6C6.37465 19.9 5.97493 20 5.47528 20ZM10.072 2C9.9721 2 9.67231 2 9.57238 2.4L7.67373 6.4C7.47387 6.7 7.17408 6.9 6.87429 6.9L2.57734 7.6C2.27755 7.6 2.17762 7.9 2.07769 8C2.07769 8.1 1.97776 8.4 2.27755 8.7L5.37535 11.8C5.57521 12 5.67514 12.3 5.67514 12.7L4.97564 17.1C4.87571 17.5 5.1755 17.7 5.27542 17.8C5.37535 17.9 5.57521 18 5.875 17.8L9.67231 15.7C9.9721 15.5 10.3718 15.5 10.6716 15.7L14.4689 17.8C14.7687 17.9 14.9686 17.8 15.0685 17.8C15.1684 17.7 15.3683 17.5 15.3683 17.1L14.6688 12.7C14.5688 12.4 14.6688 12.1 14.9686 11.8L18.0664 8.7C18.1663 8.5 18.0664 8.1 18.0664 8C18.0664 7.9 17.8665 7.6 17.5667 7.6L13.2698 7C12.97 7 12.6702 6.7 12.4703 6.4L10.5717 2.4C10.4717 2 10.172 2 10.072 2Z" fill="#222222"/>
</g>
</svg>
