<svg width="20" height="20" viewBox="0 0 20 20" fill="none" xmlns="http://www.w3.org/2000/svg">
<g id="Frame 1321315608">
<g id="Group 95">
<path id="Vector (Stroke)" fill-rule="evenodd" clip-rule="evenodd" d="M4.19753 3.6363C2.95094 3.6363 1.81818 4.7523 1.81818 6.33849V13.6614C1.81818 15.2476 2.95094 16.3636 4.19753 16.3636H15.8898C17.1403 16.3636 18.2492 15.2512 18.1787 13.7027C18.1781 13.6889 18.1778 13.6752 18.1778 13.6614V6.33849C18.1778 4.7523 17.045 3.6363 15.7984 3.6363H4.19753ZM0 6.33849C0 3.91214 1.79029 1.81812 4.19753 1.81812H15.7984C18.2056 1.81812 19.9959 3.91214 19.9959 6.33849V13.6418C20.0965 16.0965 18.286 18.1818 15.8898 18.1818H4.19753C1.79029 18.1818 0 16.0877 0 13.6614V6.33849Z" fill="#222222"/>
<path id="Vector (Stroke)_2" fill-rule="evenodd" clip-rule="evenodd" d="M3.75506 5.91562C4.0026 5.47881 4.55738 5.32538 4.99419 5.57293L9.24763 7.98343C9.74004 8.24822 10.261 8.24822 10.7534 7.98343L15.0068 5.57293C15.4436 5.32538 15.9984 5.47881 16.246 5.91562C16.4935 6.35242 16.3401 6.9072 15.9033 7.15475L11.6419 9.56974L11.6274 9.57779C10.5899 10.141 9.41117 10.141 8.37363 9.57779L8.35911 9.56974L4.09774 7.15475C3.66094 6.9072 3.50751 6.35242 3.75506 5.91562Z" fill="#222222"/>
</g>
</g>
</svg>
