<svg width="191" height="32" fill="none" xmlns="http://www.w3.org/2000/svg"><g clip-path="url(#clip0_757_44429)" fill="#fff"><path d="M71.88 12.496V24.38h-4.34V12.496h-4.39V8.712h13.107v3.784H71.88zm14.52 7.159h-6.894c.136 1.302.893 1.873 1.996 1.873 1.03 0 1.885-.223 3.038-.831l1.538 2.58c-1.45.856-2.951 1.34-4.786 1.34-3.534 0-5.481-2.506-5.481-6.116 0-4.057 2.282-6.129 5.37-6.129 3.223 0 5.232 2.121 5.232 6.488 0 .348 0 .596-.013.795zm-5.332-4.293c-.917 0-1.425.633-1.562 1.786h3.36c-.21-1.19-.607-1.786-1.797-1.786zM93.89 24.63c-3.447 0-5.506-2.197-5.506-6.154 0-3.61 1.835-6.092 5.593-6.092 2.22 0 3.484 1.03 4.513 2.68l-2.777 2.109c-.558-1.03-.943-1.526-1.81-1.526-1.03 0-1.55 1.03-1.55 2.89 0 1.862.557 2.817 1.66 2.817.757 0 1.303-.422 2.034-1.526l2.555 1.997c-1.364 2.01-2.63 2.804-4.712 2.804zm13.726-.249v-6.674c0-1.526-.508-1.923-1.339-1.923-.856 0-1.364.397-1.364 1.885v6.712h-4.03V9.667l4.03-1.613v5.36c.744-.558 1.562-1.03 2.951-1.03 2.579 0 3.807 1.725 3.807 4.814v7.183h-4.055zm13.69.249c-4.65 0-7.143-3.45-7.143-8.077 0-5.037 2.951-8.077 7.155-8.077 3.844 0 5.369 1.663 6.448 4.615l-3.931 1.526c-.558-1.451-1.091-2.37-2.529-2.37-1.811 0-2.592 1.812-2.592 4.293 0 2.395.756 4.293 2.641 4.293 1.364 0 1.947-.744 2.79-2.22l3.67 1.947c-1.041 2.072-2.79 4.07-6.509 4.07zm16.417-7.568c-.509-.559-1.091-.98-1.873-.98-.979 0-1.587.47-1.587 1.898v6.401h-4.03V12.632h4.03v.857c.695-.67 1.476-1.092 2.505-1.092.856 0 1.426.198 1.897.496l-.942 4.169zm9.572 7.319V23.6c-.719.558-1.562 1.03-2.926 1.03-2.579 0-3.807-1.725-3.807-4.814v-7.184h4.055v6.675c0 1.526.508 1.923 1.339 1.923s1.339-.397 1.339-1.886v-6.712h4.055v11.75h-4.055zm13.69 0v-6.675c0-1.526-.509-1.923-1.34-1.923-.855 0-1.364.397-1.364 1.886v6.712h-4.029V12.632h4.029v.782c.744-.559 1.563-1.03 2.952-1.03 2.579 0 3.806 1.725 3.806 4.814v7.183h-4.054zm11.903.249c-3.447 0-5.505-2.197-5.505-6.154 0-3.61 1.835-6.092 5.592-6.092 2.22 0 3.484 1.03 4.514 2.68l-2.778 2.109c-.558-1.03-.942-1.526-1.81-1.526-1.029 0-1.55 1.03-1.55 2.89 0 1.862.558 2.817 1.661 2.817.757 0 1.302-.422 2.034-1.526l2.554 1.997c-1.364 2.01-2.629 2.804-4.712 2.804zm13.727-.249v-6.674c0-1.526-.509-1.923-1.339-1.923-.856 0-1.364.397-1.364 1.885v6.712h-4.03V9.667l4.03-1.613v5.36c.744-.558 1.562-1.03 2.951-1.03 2.579 0 3.806 1.725 3.806 4.814v7.183h-4.054zM.334 2v8.957h8.953V28.86h8.94V10.958h8.952V2H.334zM36.12 19.903v-8.945h-8.94V28.86h26.832v-8.957H36.12zM54.012 2H36.12v8.957h17.892V2z"/></g><defs><clipPath id="clip0_757_44429"><path fill="#fff" transform="translate(.334)" d="M0 0h190.667v32H0z"/></clipPath></defs></svg>