<svg width="220" height="32" fill="none" xmlns="http://www.w3.org/2000/svg"><path fill-rule="evenodd" clip-rule="evenodd" d="M4.124 11.715c.433-1.173 1.028-2.094 1.787-2.77.099-.046.207-.064.315-.082.109-.01.37-.018.795-.018.234 0 .433.018.613.045.18.036.361.1.55.19.19.099.416.225.669.397L5.63 12.04l.758.605v8.538A4.518 4.518 0 014.43 19.35c-.631-1.092-.947-2.563-.947-4.395-.01-.993.207-2.076.64-3.24zm-.298-3.276c.19 0 .433.036.73.099.299.063.57.126.822.19-1.769.785-3.14 2.075-4.107 3.89a11.025 11.025 0 00-1.263 5.189c0 2.32.803 4.305 2.419 5.957 1.615 1.651 3.583 2.482 5.893 2.482 2.23 0 4.125-.858 5.66-2.563 1.534-1.706 2.31-3.719 2.31-6.038a5.165 5.165 0 01-.713 1.218 7.996 7.996 0 01-1.12 1.092 5.06 5.06 0 01-.857.614 11.93 11.93 0 01-.984.46V9.639c.506-.208.912-.424 1.219-.65.307-.216.64-.541 1.002-.965.93-1.03 1.444-2.185 1.552-3.448-.677.442-1.282.767-1.823.984a6.855 6.855 0 01-1.814.415c-.109 0-.253.009-.443.027-.74 0-1.84-.289-3.303-.867C7.544 4.558 6.39 4.27 5.54 4.27c-1.67 0-3.005.785-4.016 2.338C.622 7.997.161 9.648.161 11.57c.127-.586.434-1.146.921-1.678.361-.397.776-.74 1.236-1.011a2.753 2.753 0 011.508-.442zm15.397 17.644l2.753-3.068-1.39-1.454V13.34l.794-.532 2.211 1.679v10.848c0 .614-.036 1.137-.108 1.57a2.448 2.448 0 01-.488 1.12l-.776.965a3.774 3.774 0 01-1.308 1.03c1.056-.109 1.922-.344 2.59-.714.677-.37 1.372-.956 2.085-1.75.523-.596.92-1.183 1.182-1.77.27-.604.442-1.245.524-1.895V11.733l-.948.063-2.97-1.994-2.147 1.768-.695-.379v-6.01L19.9 3.818 17.084 6.57v15.587l-.857 1.011 2.996 2.915zm9.422-3.447l5.09 3.222 4.838-5.09-2.626 1.868-3.222-2.31v-2.149l5.758-4.305-3.664-4.937-5.849 4.08v8.917l-.325.704zM45.568 6.733v5.912c-.424.045-.767.117-1.029.225a3.262 3.262 0 00-.84.542c-.848.658-1.263 1.498-1.263 2.527-.009.325.036.64.127.947.297-.252.586-.424.866-.505.289-.081.64-.126 1.065-.126.208 0 .379.027.505.063.127.045.316.126.569.252v5.813l4.368 4.395 4.017-4.08 4.837 4.08 7.049-6.832V8.249L61.47 4.901l-3.222 2.906L53.853 4.9l-3.917 3.285V6.264c0-.632-.451-1.345-1.363-2.148a13.41 13.41 0 01-.776-.587c-.243-.199-.388-.487-.424-.857a9.904 9.904 0 01-.063-.903c0-.713.243-1.29.73-1.706A3.689 3.689 0 0047.5 0c-.948 0-1.788.397-2.51 1.182-.73.795-1.092 1.67-1.092 2.645 0 .144.018.352.063.604.18 1.03.713 1.796 1.607 2.302zm21.12 16.065l3.916 2.753 2.843-2.69 3.385 2.374 2.906-3.132h-1.01l-1.291-1.336v-9.26l-.695.127-3.286-2.753-6.227 4.296v9.07l-.542.551zM85.55 9.495a5.6 5.6 0 01-1.119-.713l-5.153 3.637v6.137l.478.38h3.069l-3.98 6.922c.613-.524 1.082-.876 1.425-1.047a3.523 3.523 0 011.553-.352c.677 0 1.218.08 1.642.234.425.154.858.434 1.3.84l5.054-3.98v-6.228l-.379-.379h-3.384v-.316l3.005-5.28c-.316.19-.569.298-.758.334a6.292 6.292 0 01-.92.045h-.668a2.69 2.69 0 01-1.165-.234zm8.015 16.146l2.78-3.096-1.39-1.453V12.87l.758-.541 2.247 1.705v10.813a9.176 9.176 0 01-.108 1.57 2.369 2.369 0 01-.524 1.12 23.25 23.25 0 00-.695.92 4.53 4.53 0 01-1.362 1.074c.965-.081 1.832-.316 2.58-.704.75-.388 1.454-.966 2.104-1.724a7.106 7.106 0 001.137-1.787 7.294 7.294 0 00.541-1.913V11.255l-.92.099-3.006-1.995-2.148 1.742-.695-.379V4.738l-.604-1.39-2.843 2.753v15.623l-.858.975 3.006 2.942zm15.207-18.682l-2.842-2.311-2.311 2.527 2.401 2.184 2.752-2.4zm-4.458 7.139v8.6l-.605.921h1.074l2.464 2.085 2.591-2.373 3.321 2.69 2.906-3.223-.921-1.164v-8.06l.759-.379 1.678 1.832v7.897l2.943 2.564 2.843-3.223h-1.327l-.758-1.236v-8.601l.379-.794-.758.162-2.907-2.31-2.843 2.942-3.321-2.626-2.753 3.068h1.074l.921 1.074v7.897l-1.832.632-1.173-.92v-8.854l.379-.542-3.286-2.437-2.689 2.843.92.29.921 1.245zm56.851 8.32l-.912-1.172v-8.06l.758-.379 1.679 1.832v7.933l2.942 2.527 2.843-3.222h-1.327l-.758-1.236V12.04l.379-.758-.758.126-2.906-2.31-2.843 2.942-3.321-2.627-2.753 3.069h1.074l.921 1.074v7.933l-1.137 1.517 3.51 2.31 2.609-2.897zm-37.185.064c.424 0 .803.054 1.155.163a3.26 3.26 0 011.029.55c.334.262.587.515.74.758.154.244.289.578.398.993l-1.643 2.121-1.742 2.338c.442-.253.821-.407 1.137-.46.316-.055.776-.082 1.39-.082.713.063 1.327.235 1.832.506.506.27.966.685 1.39 1.236 1.011-.38 2.184-1.227 3.529-2.527 1.345-1.309 2.013-2.383 2.013-3.222 0-.145-.154-.605-.461-1.354a6.48 6.48 0 01-.46-2.41v-9.837l-4.395-2.753-5.533 3.917v9.36l-.379.703zm10.912-10.812h1.832v10.975l-.442.857h1.074l2.31 1.769 2.97-3.384h-1.3l-.857-.921v-9.08l1.868-2.31h-1.868V3.538l-3.764 3.51V9.45l-1.823 2.22zm7.996 10.812l3.917 2.78 6.833-4.774V11.19l-.695.163-3.295-2.78-6.227 4.296v9.08l-.533.532zm32.095-15.686v2.942c-.551 0-1.011.055-1.39.172-.379.117-.74.343-1.092.677a1.965 1.965 0 00-.614 1.173c-.063.442-.099 1.02-.099 1.742 0 .298-.009.496-.037.605.461-.74 1.111-1.047 1.932-.921.55.081.984.316 1.3.695v4.9a8.618 8.618 0 00-2.528 1.995c-.803.948-1.344 1.923-1.615 2.943a7.67 7.67 0 011.137-.74c.316-.163.758-.316 1.327-.488.207-.063.451-.135.731-.207.271-.073.587-.109.948-.109v9.45l4.142-3.385 1.39 1.011v-5.379l1.769.605 5.975-4.143V6.417l-3.827-3.069-3.917 3.286V4.9l-.758-.632v2.78l-.632.442V4.585l-3.222-2.473-3.827 3.763c.316-.189.641-.288.975-.288.271 0 .542.045.794.126.569.217.948.578 1.138 1.083zM188.8 22.798l3.917 2.753 6.86-4.775v-9.269l-.695.127-3.322-2.753-6.227 4.296v9.07l-.533.551zm18.15-13.439a8.537 8.537 0 01-1.173-.695l-5.126 3.601v6.138l.442.379h3.069l-3.981 6.922c.443-.379.813-.659 1.11-.857.551-.361 1.183-.542 1.896-.542.659 0 1.191.082 1.615.235.424.162.858.433 1.3.84l5.063-3.98v-6.228l-.379-.38h-3.384v-.315l3.005-5.28c-.316.19-.569.298-.758.334-.19.036-.496.045-.921.045h-.659c-.433 0-.803-.072-1.119-.217zm4.296 2.464h1.833v10.975l-.443.857h1.074l2.275 1.77 3.005-3.385h-1.299l-.858-.92v-9.071l1.832-2.31h-1.832V3.7l-3.745 3.511v2.401l-1.842 2.211zm-140.263.289l2.464 1.832v7.365l-.794.857-1.679-1.453.01-8.601zm61.219 12.96c.506.361.758.813.758 1.363 0 .253-.027.443-.063.569-.126.19-.225.316-.289.379-.171.171-.388.28-.631.316-.271.045-.632-.09-1.074-.397-.443-.307-1.11-.46-1.995-.46-.569 0-1.083.053-1.552.162a6.692 6.692 0 00-1.453.541l4.621-5.695v.731c0 .425.036.768.108 1.047.072.271.235.542.487.795.361.216.722.442 1.083.65zm-4.079-13.34l2.401 1.77v7.148l-.695.758-1.706-1.706v-7.97zm-95.398 5.534v-4.621l2.31 2.906-2.31 1.714zm54.17-5.217l-2.148 3.827h-1.615v-4.143a3.802 3.802 0 002.057.605 5.455 5.455 0 001.706-.29zm60.289-.253l2.464 1.868v7.365l-.785.858-1.679-1.49v-8.6zm-63.457 6.381h2.31v4.08a6.479 6.479 0 00-.992-.271c-.226-.027-.677-.045-1.372-.045a4.89 4.89 0 00-1.2.126c-.334.081-.74.226-1.2.415l2.454-4.305zm95.398-8.601l.632-.542v18.051l-.632-.379V9.576zm1.39-1.011l1.931-1.236 1.39 1.01v11.887c-.658-.38-1.01-.578-1.074-.605l-.695-.226c-.514-.126-1.038-.252-1.552-.379V8.566zM11.569 9.955c.208 0 .38-.018.506-.063v11.507a5.726 5.726 0 01-2.563.605 6.75 6.75 0 01-1.58-.19c-.523-.126-.938-.298-1.236-.505l3.6-3.601V9.802c.154.08.317.135.488.144.18.009.298.018.361.018l.424-.01zm181.536 2.157l2.464 1.832v7.365l-.758.857-1.706-1.453v-8.601zM49.927 9.107l1.173-.921 2.437 2.464v11.354l-.983 1.01-2.627-2.526V9.107zm157.529 3.005c.271-.045.541-.117.785-.226l-2.148 3.827h-1.616V11.57a3.872 3.872 0 002.085.605c.325 0 .623-.027.894-.063zm-2.374 5.912h2.311v4.08a6.47 6.47 0 00-.993-.272c-.226-.036-.677-.045-1.381-.045a4.846 4.846 0 00-1.2.127 7.854 7.854 0 00-1.174.415l2.437-4.305zM58.239 9.107l1.147-.921 2.464 2.464v11.354l-1.011 1.01-2.59-2.526-.01-11.381z" fill="#fff"/></svg>