<svg width="144" height="32" fill="none" xmlns="http://www.w3.org/2000/svg"><g clip-path="url(#clip0_757_44431)" fill="#fff"><path d="M128.963 25.532h5.202c.202.656.889 1.312 2.175 1.312 1.742 0 2.342-1.082 2.342-2.681v-1.14h-.116c-.859 1.001-2.001 1.738-3.685 1.738-3.317 0-6.201-2.451-6.201-7.245 0-4.39 2.371-7.814 5.947-7.814 2.059 0 3.317.829 4.147 2.14h.087v-1.68h5.145V23.45c0 2.451-.86 4.362-2.146 5.507-1.344 1.197-3.259 1.68-5.433 1.68-4.09 0-6.945-1.686-7.464-5.104zm9.95-8.274c0-1.91-.912-3.453-2.486-3.453-1.517 0-2.487 1.37-2.487 3.453 0 2.054.975 3.533 2.487 3.533 1.568.005 2.486-1.508 2.486-3.534zm-15.978-4.477h.087c1.113-2.14 2.572-2.935 4.429-2.935.427 0 .716.058.889.144v4.707h-.116c-3.172-.57-5.029.944-5.029 4.39v6.416h-5.405v-15.34h5.145v2.618zM0 4h10.579c2.001 0 3.541.483 4.631 1.37 1.229.995 1.887 2.48 1.887 4.246 0 2.054-.831 3.337-2.544 4.137v.087c2.232.742 3.518 2.738 3.518 5.161 0 2.307-.888 4.108-2.342 5.19-1.228.886-2.826 1.312-4.943 1.312H0V4zm10.065 16.739c1.287 0 2.227-.771 2.227-2.198 0-1.485-1.027-2.198-2.255-2.198H5.86v4.39h4.205v.006zm-.548-8.327c1.142 0 1.973-.627 1.973-1.881 0-1.226-.86-1.824-2.002-1.824H5.86v3.705h3.657zM19.04 4h5.544v21.503H19.04V4zm6.605 13.856c0-4.845 3.143-8.125 8.006-8.125 4.862 0 7.948 3.28 7.948 8.125 0 4.88-3.086 8.125-7.948 8.125-4.863.005-8.006-3.246-8.006-8.125zm10.463 0c0-2.682-.86-4.362-2.515-4.362-1.655 0-2.457 1.68-2.457 4.362 0 2.71.802 4.39 2.457 4.39 1.656.006 2.515-1.68 2.515-4.39zm6.12 0c0-4.845 3.144-8.125 8.006-8.125 4.863 0 7.948 3.28 7.948 8.125 0 4.88-3.085 8.125-7.948 8.125-4.862.005-8.006-3.246-8.006-8.125zm10.463 0c0-2.682-.86-4.362-2.515-4.362-1.655 0-2.457 1.68-2.457 4.362 0 2.71.802 4.39 2.457 4.39 1.656.006 2.515-1.68 2.515-4.39zm6.547-7.693h5.145v2.307h.087c1.026-1.795 2.428-2.768 4.632-2.768 1.943 0 3.403.967 4.147 2.653h.086c1.258-2.026 2.89-2.653 4.776-2.653 3.576 0 5.117 2.624 5.117 6.157v9.638h-5.405v-8.665c0-1.571-.485-2.595-1.857-2.595-1.344 0-2.03 1.254-2.03 2.911v8.355h-5.411v-8.671c0-1.571-.485-2.595-1.858-2.595-1.344 0-2.03 1.254-2.03 2.911v8.355h-5.399v-15.34zm30.588 13.343h-.057v1.997h-5.146V4h5.405v7.757h.087c1.026-1.341 2.4-2.055 4.372-2.055 3.859 0 6.091 3.482 6.091 8.096 0 5.22-2.428 8.212-6.431 8.212-1.662.005-3.375-.795-4.32-2.504zm5.26-5.76c0-2.48-.91-4.08-2.543-4.08-1.656 0-2.717 1.6-2.717 4.08 0 2.452 1.056 4.08 2.717 4.08 1.655-.006 2.544-1.6 2.544-4.08zm6.178.058c0-4.793 3.173-8.125 7.776-8.125 2.284 0 4.06.714 5.404 1.997 1.771 1.709 2.573 4.39 2.515 7.555H106.64c.231 1.91 1.142 2.883 2.775 2.883.946 0 1.77-.426 2.116-1.456h5.203c-.911 3.504-3.628 5.277-7.487 5.277-4.781-.006-7.983-3.228-7.983-8.13zm5.376-1.6h4.915c-.087-1.852-1.114-2.825-2.4-2.825-1.488 0-2.319 1.059-2.515 2.825z"/></g><defs><clipPath id="clip0_757_44431"><path fill="#fff" d="M0 0h144v32H0z"/></clipPath></defs></svg>