<svg width="51" height="52" viewBox="0 0 51 52" fill="none" xmlns="http://www.w3.org/2000/svg">
<path d="M25.4546 1C20.6818 1 15.9091 1.22727 11.1364 1.90909C7.5 2.13636 5 5.09091 5 8.5V26C5 26 5 41.9091 25.4546 51C45.9091 41.9091 45.9091 26 45.9091 26V8.5C45.9091 5.09091 43.4091 2.13636 39.7727 1.68182C35 1.22727 30.2273 1 25.4546 1Z" stroke="#6CEABD" stroke-width="0.8"/>
<path fill-rule="evenodd" clip-rule="evenodd" d="M17.2312 30C17.9336 30.0029 18.6296 29.8664 19.2788 29.5985C19.9281 29.3306 20.5178 28.9365 21.0137 28.4392C22.0033 27.4498 22.5034 26.1726 22.4598 24.7456C22.4202 23.4467 21.9179 22.0848 21.0452 20.9103L17.4946 16.1323C17.4641 16.0913 17.4243 16.0579 17.3786 16.0349C17.3329 16.012 17.2825 16 17.2313 16C17.1801 16 17.1297 16.012 17.084 16.0349C17.0382 16.0579 16.9985 16.0913 16.968 16.1323L13.4174 20.9104C12.5445 22.0848 12.0423 23.4468 12.0026 24.7456C11.9591 26.1726 12.4593 27.4499 13.4488 28.4392C13.9448 28.9366 14.5344 29.3306 15.1837 29.5985C15.8329 29.8664 16.5289 30.0028 17.2312 30Z" stroke="#6CEABD" stroke-width="0.8"/>
<path d="M27.3748 22.1781L27.6878 22.4271L27.8107 22.2726L27.7629 22.0812L27.3748 22.1781ZM35.7917 17.5369L35.5025 17.8133L35.6316 17.9484L35.818 17.9361L35.7917 17.5369ZM37.9276 23.8359L37.7058 23.503L37.5156 23.6298L37.5282 23.858L37.9276 23.8359ZM33.9477 27.4278L34.0104 27.0328L33.7813 26.9964L33.6359 27.1771L33.9477 27.4278ZM27.7629 22.0812C27.6743 21.7261 27.6271 21.3541 27.6271 20.9706H26.8271C26.8271 21.4199 26.8824 21.8569 26.9867 22.2749L27.7629 22.0812ZM27.6271 20.9706C27.6271 18.4463 29.6734 16.4 32.1977 16.4V15.6C29.2316 15.6 26.8271 18.0045 26.8271 20.9706H27.6271ZM32.1977 16.4C33.4974 16.4 34.6698 16.942 35.5025 17.8133L36.0809 17.2606C35.1035 16.2379 33.7248 15.6 32.1977 15.6V16.4ZM35.818 17.9361C35.8851 17.9317 35.9529 17.9294 36.0212 17.9294V17.1294C35.9353 17.1294 35.85 17.1322 35.7654 17.1378L35.818 17.9361ZM36.0212 17.9294C37.7008 17.9294 39.0624 19.291 39.0624 20.9706H39.8624C39.8624 18.8492 38.1426 17.1294 36.0212 17.1294V17.9294ZM39.0624 20.9706C39.0624 22.0267 38.5244 22.9572 37.7058 23.503L38.1495 24.1687C39.1813 23.4808 39.8624 22.3053 39.8624 20.9706H39.0624ZM37.5282 23.858C37.5314 23.9147 37.533 23.9719 37.533 24.0294H38.333C38.333 23.957 38.331 23.8851 38.327 23.8137L37.5282 23.858ZM37.533 24.0294C37.533 25.709 36.1714 27.0706 34.4918 27.0706V27.8706C36.6132 27.8706 38.333 26.1508 38.333 24.0294H37.533ZM34.4918 27.0706C34.3277 27.0706 34.167 27.0576 34.0104 27.0328L33.8849 27.8229C34.0828 27.8543 34.2856 27.8706 34.4918 27.8706V27.0706ZM33.6359 27.1771C32.9377 28.0454 31.8679 28.6 30.6683 28.6V29.4C32.1205 29.4 33.4158 28.7275 34.2594 27.6785L33.6359 27.1771ZM30.6683 28.6C28.5664 28.6 26.8624 26.896 26.8624 24.7941H26.0624C26.0624 27.3379 28.1245 29.4 30.6683 29.4V28.6ZM26.8624 24.7941C26.8624 23.8989 27.171 23.0769 27.6878 22.4271L27.0617 21.9291C26.4363 22.7154 26.0624 23.7116 26.0624 24.7941H26.8624Z" fill="#6CEABD"/>
<circle cx="30.9624" cy="19.5" r="0.5" fill="#6CEABD"/>
<circle cx="29.9624" cy="21.5" r="0.5" fill="#6CEABD"/>
<circle cx="32.9624" cy="22.5" r="0.5" fill="#6CEABD"/>
<circle cx="36.9624" cy="19.5" r="0.5" fill="#6CEABD"/>
<circle cx="35.9624" cy="23.5" r="0.5" fill="#6CEABD"/>
<circle cx="33.9624" cy="18.5" r="0.5" fill="#6CEABD"/>
<circle cx="28.9624" cy="27.5" r="0.5" fill="#6CEABD"/>
<circle cx="26.9624" cy="24.5" r="0.5" fill="#6CEABD"/>
<circle cx="29.9624" cy="25.5" r="0.5" fill="#6CEABD"/>
<circle cx="28.9624" cy="18.5" r="0.5" fill="#6CEABD"/>
<circle cx="31.9624" cy="24.5" r="0.5" fill="#6CEABD"/>
<circle cx="33.9624" cy="25.5" r="0.5" fill="#6CEABD"/>
<circle cx="35.9624" cy="21.5" r="0.5" fill="#6CEABD"/>
</svg>
