<svg width="132" height="32" fill="none" xmlns="http://www.w3.org/2000/svg"><path d="M21.61 22.722V8.257c0-.752.166-1.316.52-1.693.333-.376.792-.564 1.334-.564.562 0 1.02.188 1.354.564.354.377.521.941.521 1.693v14.465c0 .752-.167 1.337-.52 1.714-.355.376-.793.564-1.355.564-.542 0-.98-.188-1.313-.564-.354-.398-.542-.962-.542-1.714zm100.834 2.258c-5.209 0-9.46-4.265-9.46-9.49 0-5.226 4.251-9.49 9.46-9.49 5.21 0 9.461 4.264 9.461 9.49 0 5.246-4.23 9.49-9.461 9.49zm0-15.134c-3.105 0-5.626 2.53-5.626 5.643 0 3.115 2.521 5.644 5.626 5.644 3.105 0 5.627-2.529 5.627-5.643 0-3.094-2.522-5.644-5.627-5.644zM79.997 24.98c-5.21 0-9.46-4.265-9.46-9.49 0-5.226 4.25-9.49 9.46-9.49 5.21 0 9.46 4.264 9.46 9.49 0 5.246-4.25 9.49-9.46 9.49zm0-15.134c-3.105 0-5.626 2.53-5.626 5.643 0 3.115 2.521 5.644 5.626 5.644 3.105 0 5.626-2.529 5.626-5.643 0-3.094-2.521-5.644-5.626-5.644zm29.965 5.644c0-2.09-.687-4.035-1.833-5.602A9.511 9.511 0 00100.773 6H95.73c-.813 0-1.396.188-1.75.564-.355.377-.542.962-.542 1.798v14.276c0 .836.187 1.421.541 1.798.355.376.959.564 1.75.564h5.044c3.021-.084 5.668-1.589 7.356-3.888a9.595 9.595 0 001.833-5.622zm-8.793 5.601c-.459.021-.959.042-1.48.042h-2.48V9.846h2.48c.521 0 1.021 0 1.48.042 1.646.188 3.063 1.108 3.959 2.403.625.9 1 2.007 1 3.198a5.532 5.532 0 01-1 3.178 5.493 5.493 0 01-3.959 2.424zM65.181 6.084a1.63 1.63 0 00-1.834.668l-5.71 8.717-5.709-8.717a1.63 1.63 0 00-1.833-.668c-.688.209-1.167.877-1.167 1.609v15.488c0 .92.729 1.694 1.646 1.694.896 0 1.646-.753 1.646-1.694v-9.97l4.043 6.187v.021s0 .021.02.021c.021.042.042.084.084.104l.041.042c.021.021.042.063.063.084l.063.063c.02.02.041.02.041.041a.353.353 0 01.104.084l.021.02c.042.022.084.043.104.064.021 0 .021.02.021.02.021.021.063.021.084.042.166.084.333.126.52.147h.335c.167-.021.354-.063.52-.147.022-.02.063-.02.084-.042l.021-.02a.429.429 0 00.104-.063c.021 0 .021-.021.021-.021.042-.02.063-.042.104-.084.021-.02.042-.02.042-.041l.063-.063c.02-.021.041-.042.062-.084l.042-.041c.02-.042.062-.063.083-.105l.02-.02v-.022l4.043-6.187v9.97c0 .92.73 1.694 1.647 1.694.896 0 1.646-.753 1.646-1.694V7.694c.083-.732-.396-1.4-1.084-1.61zM43.343 24.415H31.07c-.645 0-1.354-.397-1.625-1.024-.27-.627-.312-1.484.25-2.174L39.717 9.532h-8.293c-.896 0-1.646-.794-1.646-1.755 0-.962.729-1.568 1.646-1.568h11.169c.646 0 1.313.105 1.896.753.542.585.5 1.86-.083 2.612l-9.69 11.33h8.627c.917 0 1.563.794 1.563 1.755 0 .962-.646 1.756-1.563 1.756zm-33.945.565c-2.73 0-5.189-1.088-6.96-3.053C.896 20.213 0 17.935 0 15.677 0 8.635 5.835 6 9.523 6c3.626 0 6.272 1.777 6.397 1.86a1.813 1.813 0 01.48 2.508 1.757 1.757 0 01-2.46.502c-.041-.02-1.937-1.254-4.417-1.254-2.313 0-5.501 1.526-5.501 6.062 0 2.57 1.917 5.622 5.418 5.622 1.98 0 3.354-.522 4.167-1.045V17.58h-2.709c-.98 0-1.77-.815-1.77-1.798 0-1.003.79-1.797 1.77-1.797h4.522c.98 0 1.771.815 1.771 1.797v5.372c0 .48-.187.962-.541 1.296-1.188 1.17-3.814 2.53-7.252 2.53z" fill="#fff"/></svg>