<svg width="154" height="44" fill="none" xmlns="http://www.w3.org/2000/svg"><g clip-path="url(#clip0_808_5633)"><path fill-rule="evenodd" clip-rule="evenodd" d="M19.86.097C13.07.735 8.512 4.008 5.362 7.48 1.877 11.343-.403 16.77.059 23.926c.75 11.59 11.757 21.021 23.955 19.77 11.473-1.174 20.53-11.016 19.604-23.865C42.816 8.751 32.47-1.09 19.86.097zm.529 24.156c-.57 3.697-1.532 6.947-4.106 9.418-1.02.977-1.276 1.348-3.219 1.353-.934 0-1.238.071-1.787-.457a1.96 1.96 0 01-.73-1.56l.015-22.58c.067-.55.534-1.083.848-1.341.597-.493 1.072-.352 1.989-.358 1.365 0 1.863.304 3.063 1.512 2.627 2.698 4.78 8.493 3.927 14.013zm2.823-.112c-.771-5.76 1.616-12.472 5.251-14.95.766-.511.746-.468 1.874-.465.858 0 1.313-.138 1.89.347.354.299.827.766.875 1.445.1 1.435 0 7.166 0 9.08v8.97c0 1.485.054 3.063 0 4.544a1.95 1.95 0 01-.743 1.468c-.592.548-.914.441-1.917.441-1.437 0-1.787-.071-3.153-1.417-2.361-2.325-3.615-5.996-4.077-9.456v-.007z" fill="#FCFCFC"/><path fill-rule="evenodd" clip-rule="evenodd" d="M13.612 10.863v20.15c0 1.443-.373 2.49.853 1.514 4.245-3.385 5.149-12.443 2.361-18.126-.488-.993-2.02-3.548-3.214-3.538zm16.413 22.07V10.84c-1.366.16-2.946 2.882-3.559 4.365-1.657 4.011-1.677 9.27-.038 13.291.618 1.517 2.175 4.271 3.574 4.437" fill="#FCFCFC"/><path d="M64.508 20.283v-6.497h-5.157l-.015 2.504h2.152l-.018 1.9c-1.516.178-2.655.16-3.393-.817-1.276-1.678-1.376-8.078 5.137-5.456.412-.82.753-1.675 1.021-2.553-5.272-1.68-10.196-.33-10.16 5.514.015 2.809 1.084 4.652 3.012 5.563 2.297 1.083 5.157.363 7.426-.143m12.971.462l2.255.046c.594 0 .27-.449.852-.906.641.4.853.889 1.943 1.021 2.882.38 3.975-2.18 3.926-4.978-.033-1.915-.592-3.319-1.718-4.149a2.928 2.928 0 00-2.364-.362c-1.24.311-1.212.927-1.787 1.259l.13-4.644-3.234-.016-.003 12.73zM81.48 14c2.017-1.105 2.208 3.779.96 4.292-1.249.513-1.667-.605-1.731-1.606-.074-1.17-.108-2.203.77-2.686zm57.05-1.353c-2.53-2.897-5.808-.855-5.837 3.429-.015 2.882 1.333 5.51 4.118 4.792 1.062-.276 1.101-.766 1.736-1.233.919 1.202.023 1.307 3.143 1.148V8.073l-3.235-.042.075 4.616zm-1.532 1.33c1.169-.372 1.618.69 1.697 1.731.087 1.19 0 2.484-1.005 2.676-2.385.46-2.17-3.93-.682-4.407h-.01zM99.2 20.755l3.244.056V16.85c1.866-.107 3.196-.107 4.317-1.154.881-.822 1.463-2.685.98-4.324-.406-1.384-1.473-2.209-3.109-2.461-.891-.138-4.595-.2-5.433-.049v11.894zm3.244-6.602v-2.7c1.172-.103 2.267.033 2.167 1.342-.084 1.141-.962 1.463-2.167 1.358zm49.438 6.146v-2.275c-1.067.278-4.781 1.84-5.126-1h5.709c.201-2.81-.381-4.8-2.717-5.467-6.433-1.84-7.822 5.99-4.672 8.425 1.695 1.315 4.767 1.243 6.796.311m-5.034-5.315c.255-1.96 2.553-1.968 2.737.02l-2.737-.02zM120.78 11.44c-5.629.93-4.761 10.646 2.099 9.446 5.346-.945 4.792-10.572-2.099-9.433m-.365 5.243c-.255-3.83 2.553-3.86 2.727-.975.061 1.11-.031 2.522-.935 2.808-1.281.399-1.708-.773-1.792-1.846v.013zm-50.432-5.244c-3.045.572-3.944 3.064-3.515 5.783.88 5.593 10.362 5.106 9.099-2.211-.432-2.494-2.62-4.13-5.584-3.574m-.255 5.836c-.825-3.957 2.173-4.61 2.581-2.165.291 1.728-.038 4.164-1.874 3.342-.403-.184-.58-.608-.697-1.175l-.01-.002z" fill="#fff"/><path d="M91.552 11.44c-5.63.93-4.762 10.646 2.098 9.446 5.343-.945 4.792-10.572-2.098-9.433m.464 2.433c2.203-1.246 2.487 4.033 1.05 4.615-2.262.901-2.436-3.84-1.05-4.628v.013zm20.595-.917l-.588-1.48h-2.318l-.051 9.302h3.214c0-1.486-.094-3.28 0-4.728.136-1.95 1.376-1.565 3.1-1.677.056-.792.352-2.298.189-2.972-1.182-.202-2.091 0-2.872.84-.256.255-.376.51-.682.7" fill="#fff"/><path fill-rule="evenodd" clip-rule="evenodd" d="M128.887 17.985c-1.973.62-1.021 3.781 1.394 2.91 1.736-.625 1.19-3.724-1.394-2.91z" fill="#6CEABD"/><path d="M54.768 35.384V27.34h1.7v6.642h3.448v1.402h-5.148zm6.243 0V29.35h1.673v6.033h-1.673zm.84-6.81a.909.909 0 01-.64-.248.802.802 0 01-.263-.6c0-.231.088-.429.263-.594a.901.901 0 01.64-.251.89.89 0 01.637.251.78.78 0 01.267.593.796.796 0 01-.267.601.895.895 0 01-.636.248zm4.899 6.928c-.618 0-1.15-.132-1.594-.393a2.654 2.654 0 01-1.022-1.1c-.235-.469-.353-1.008-.353-1.618 0-.618.119-1.16.357-1.626a2.658 2.658 0 011.025-1.096c.443-.264.97-.396 1.58-.396.525 0 .986.095 1.382.286.395.191.708.46.938.805.23.346.358.752.381 1.218h-1.579a1.22 1.22 0 00-.353-.727c-.189-.186-.436-.279-.742-.279-.26 0-.486.071-.68.213a1.35 1.35 0 00-.448.608c-.107.267-.16.59-.16.97 0 .385.052.713.157.982.107.27.258.476.451.617.194.141.42.212.68.212.19 0 .362-.04.514-.118a.993.993 0 00.381-.342c.102-.151.169-.333.2-.546h1.58a2.485 2.485 0 01-.378 1.218c-.222.348-.53.62-.923.817-.393.196-.857.294-1.394.294zm5.438-3.606v3.488h-1.673V27.34h1.626v3.076h.071c.136-.357.356-.635.66-.837.303-.204.684-.306 1.143-.306.419 0 .784.091 1.095.274.315.181.558.442.73.782.176.338.263.742.26 1.214v3.84h-1.673v-3.542c.003-.372-.092-.661-.283-.868-.188-.207-.453-.31-.793-.31-.228 0-.43.048-.605.145a1.03 1.03 0 00-.408.424 1.437 1.437 0 00-.15.664zm8.437-2.545v1.257h-3.632V29.35h3.632zm-2.808-1.445h1.673v5.624c0 .154.024.275.071.361a.39.39 0 00.196.177.811.811 0 00.299.051c.079 0 .157-.007.236-.02l.18-.035.263 1.245a4.681 4.681 0 01-.353.09 2.825 2.825 0 01-.554.067 2.543 2.543 0 01-1.06-.16 1.48 1.48 0 01-.703-.574c-.168-.26-.25-.587-.248-.982v-5.844zm3.898 9.74V29.35h1.65v1.013h.074c.074-.162.18-.327.319-.494.14-.17.324-.312.55-.425.227-.115.51-.172.848-.172.44 0 .845.115 1.217.345.372.228.67.572.892 1.033.222.458.334 1.033.334 1.724 0 .673-.11 1.241-.327 1.705-.214.46-.507.81-.88 1.048a2.25 2.25 0 01-1.24.354 1.94 1.94 0 01-.829-.161 1.716 1.716 0 01-.554-.405 2.054 2.054 0 01-.33-.498h-.05v3.228h-1.674zm1.638-5.279c0 .36.05.672.15.939.099.267.243.475.431.625.189.146.418.22.688.22.272 0 .502-.075.69-.224.19-.152.332-.362.429-.629.1-.27.15-.58.15-.93 0-.349-.05-.655-.146-.92a1.37 1.37 0 00-.428-.62 1.085 1.085 0 00-.695-.224c-.273 0-.503.072-.692.216a1.355 1.355 0 00-.428.613c-.1.264-.149.576-.149.934zm5.361 3.017V29.35h1.622v1.053h.063c.11-.375.294-.657.553-.849.26-.193.558-.29.896-.29a2.524 2.524 0 01.526.059v1.484a2.192 2.192 0 00-.326-.063 2.934 2.934 0 00-.38-.027 1.34 1.34 0 00-.66.16 1.186 1.186 0 00-.456.44 1.27 1.27 0 00-.165.653v3.413h-1.673zm6.97.118c-.61 0-1.138-.13-1.583-.39a2.66 2.66 0 01-1.025-1.091c-.24-.469-.361-1.012-.361-1.63 0-.623.12-1.168.361-1.634a2.63 2.63 0 011.025-1.092c.445-.261.973-.392 1.583-.392s1.136.13 1.579.392c.445.26.788.623 1.029 1.092.24.466.361 1.01.361 1.634 0 .618-.12 1.161-.361 1.63-.241.466-.584.83-1.03 1.092-.442.259-.968.389-1.578.389zm.008-1.297c.277 0 .51-.078.695-.235a1.46 1.46 0 00.42-.652c.097-.275.145-.588.145-.939 0-.35-.048-.663-.145-.938a1.462 1.462 0 00-.42-.652 1.03 1.03 0 00-.695-.24c-.28 0-.516.08-.707.24-.189.16-.331.377-.428.651a2.889 2.889 0 00-.142.94c0 .35.048.663.142.938.097.275.24.492.428.652.191.157.427.235.707.235zm4.049-4.854h1.673v6.331c0 .466-.092.843-.275 1.131a1.585 1.585 0 01-.789.633c-.341.133-.748.2-1.222.2a4.33 4.33 0 01-.165-.004 3.86 3.86 0 01-.172-.004V36.33c.044.003.083.004.117.004a1.1 1.1 0 00.102.004c.27 0 .459-.058.566-.173.11-.112.165-.283.165-.51V29.35zm.833-.777a.903.903 0 01-.637-.248.797.797 0 01-.267-.6.78.78 0 01.267-.594.895.895 0 01.637-.251c.251 0 .464.084.64.251a.78.78 0 01.267.593.797.797 0 01-.267.601.901.901 0 01-.64.248zm4.929 6.928c-.62 0-1.154-.126-1.602-.378a2.583 2.583 0 01-1.029-1.076c-.241-.466-.361-1.017-.361-1.653 0-.62.12-1.165.361-1.634.241-.469.58-.834 1.017-1.096.44-.261.956-.392 1.548-.392.398 0 .768.064 1.111.192.346.126.647.316.903.57.26.253.461.573.605.958.144.382.216.83.216 1.343v.46h-5.094v-1.037h3.519c0-.241-.052-.455-.157-.64a1.126 1.126 0 00-.436-.436 1.24 1.24 0 00-.64-.162c-.254 0-.479.06-.675.177a1.239 1.239 0 00-.456.468c-.11.193-.166.41-.169.648v.985c0 .299.055.557.165.774.113.217.271.385.475.503.205.118.447.176.727.176.186 0 .356-.026.51-.078a1.017 1.017 0 00.648-.62l1.548.102c-.079.371-.24.696-.483.974a2.43 2.43 0 01-.935.644c-.38.151-.818.227-1.316.227zm5.377-1.854l.004-2.007h.243l1.933-2.29h1.92l-2.596 3.032h-.397l-1.107 1.265zm-1.516 1.736V27.34h1.673v8.044h-1.673zm3.77 0l-1.775-2.628 1.115-1.182 2.62 3.81h-1.96zm5.876-6.033v1.257h-3.633V29.35h3.633zm-2.808-1.445h1.673v5.624c0 .154.023.275.07.361a.39.39 0 00.197.177.81.81 0 00.298.051c.079 0 .157-.007.236-.02l.18-.035.264 1.245a4.719 4.719 0 01-.354.09 2.824 2.824 0 01-.554.067 2.542 2.542 0 01-1.06-.16 1.483 1.483 0 01-.703-.574c-.168-.26-.25-.587-.247-.982v-5.844zm3.897 7.478V29.35h1.674v6.033h-1.674zm.841-6.81a.908.908 0 01-.64-.248.8.8 0 01-.263-.6c0-.231.087-.429.263-.594a.9.9 0 01.64-.251c.249 0 .461.084.636.251a.78.78 0 01.267.593.797.797 0 01-.267.601.893.893 0 01-.636.248zm4.898 6.928c-.61 0-1.137-.13-1.582-.39a2.651 2.651 0 01-1.025-1.091c-.241-.469-.362-1.012-.362-1.63 0-.623.121-1.168.362-1.634a2.62 2.62 0 011.025-1.092c.445-.261.972-.392 1.582-.392.61 0 1.137.13 1.579.392.445.26.788.623 1.029 1.092.241.466.361 1.01.361 1.634 0 .618-.12 1.161-.361 1.63-.241.466-.584.83-1.029 1.092-.442.259-.969.389-1.579.389zm.008-1.297c.278 0 .509-.078.695-.235a1.47 1.47 0 00.421-.652 2.84 2.84 0 00.145-.939c0-.35-.049-.663-.145-.938a1.468 1.468 0 00-.421-.652 1.028 1.028 0 00-.695-.24c-.28 0-.516.08-.707.24-.188.16-.331.377-.428.651a2.894 2.894 0 00-.141.94c0 .35.047.663.141.938.097.275.24.492.428.652.191.157.427.235.707.235zm5.722-2.309v3.488h-1.673V29.35h1.595v1.065h.071a1.68 1.68 0 01.671-.833c.314-.207.695-.31 1.143-.31.419 0 .784.091 1.096.274.311.184.553.446.726.786.173.338.26.741.26 1.21v3.84h-1.674V31.84c.003-.369-.091-.657-.282-.864-.191-.21-.455-.314-.79-.314a1.2 1.2 0 00-.597.145c-.17.097-.303.239-.4.424a1.465 1.465 0 00-.146.664zm7.956 3.606c-.62 0-1.154-.126-1.602-.378a2.583 2.583 0 01-1.029-1.076c-.241-.466-.361-1.017-.361-1.653 0-.62.12-1.165.361-1.634.241-.469.58-.834 1.017-1.096.44-.261.956-.392 1.548-.392.397 0 .768.064 1.111.192.346.126.647.316.903.57.259.253.461.573.605.958.144.382.216.83.216 1.343v.46h-5.094v-1.037h3.519c0-.241-.052-.455-.157-.64a1.126 1.126 0 00-.436-.436 1.24 1.24 0 00-.64-.162c-.254 0-.479.06-.675.177a1.239 1.239 0 00-.456.468c-.11.193-.166.41-.169.648v.985c0 .299.055.557.165.774.113.217.271.385.475.503.204.118.447.176.727.176.186 0 .356-.026.51-.078a1.017 1.017 0 00.648-.62l1.548.102c-.079.371-.24.696-.483.974a2.43 2.43 0 01-.935.644c-.38.151-.818.227-1.316.227zm5.534-3.606v3.488h-1.673V29.35h1.594v1.065h.071c.134-.351.357-.629.672-.833.314-.207.695-.31 1.143-.31.418 0 .784.091 1.095.274.312.184.554.446.727.786.173.338.259.741.259 1.21v3.84h-1.673V31.84c.003-.369-.092-.657-.283-.864-.191-.21-.454-.314-.789-.314a1.2 1.2 0 00-.597.145c-.17.097-.304.239-.401.424a1.478 1.478 0 00-.145.664z" fill="#fff"/></g><defs><clipPath id="clip0_808_5633"><path fill="#fff" d="M0 0h154v44H0z"/></clipPath></defs></svg>