<svg width="20" height="20" viewBox="0 0 20 20" fill="none" xmlns="http://www.w3.org/2000/svg">
<g id="free-icon-information-157933 1" clip-path="url(#clip0_1474_41155)">
<g id="Group">
<path id="Vector" d="M10 0C4.486 0 0 4.48606 0 10.0001C0 15.5141 4.486 20 10 20C15.514 20 20 15.5141 20 10.0001C20 4.48606 15.514 0 10 0ZM10 18.1818C5.48848 18.1818 1.81818 14.5115 1.81818 10.0001C1.81818 5.48861 5.48848 1.81818 10 1.81818C14.5115 1.81818 18.1818 5.48861 18.1818 10.0001C18.1818 14.5115 14.5115 18.1818 10 18.1818Z" fill="#6CEABD"/>
<path id="Vector_2" d="M9.99996 4.24219C9.33172 4.24219 8.78809 4.78619 8.78809 5.45485C8.78809 6.12292 9.33172 6.66643 9.99996 6.66643C10.6682 6.66643 11.2118 6.12292 11.2118 5.45485C11.2118 4.78619 10.6682 4.24219 9.99996 4.24219Z" fill="#6CEABD"/>
<path id="Vector_3" d="M9.99991 8.48438C9.49785 8.48438 9.09082 8.89141 9.09082 9.39347V14.848C9.09082 15.3501 9.49785 15.7571 9.99991 15.7571C10.502 15.7571 10.909 15.3501 10.909 14.848V9.39347C10.909 8.89141 10.502 8.48438 9.99991 8.48438Z" fill="#6CEABD"/>
</g>
</g>
<defs>
<clipPath id="clip0_1474_41155">
<rect width="20" height="20" fill="white"/>
</clipPath>
</defs>
</svg>
