<svg width="20" height="20" viewBox="0 0 20 20" fill="none" xmlns="http://www.w3.org/2000/svg">
<g id="Frame 1321315607">
<path id="Vector (Stroke)" fill-rule="evenodd" clip-rule="evenodd" d="M0 4.24242C0 1.92217 1.92217 0 4.24242 0H15.7576C18.0778 0 20 1.92217 20 4.24242V11.6162C20 13.9364 18.0778 15.8586 15.7576 15.8586H8.28283C7.33767 15.8586 6.52677 16.115 5.89899 16.5859L5.88824 16.5938L1.44379 19.8261C1.16726 20.0272 0.801266 20.0562 0.496566 19.901C0.191865 19.7458 0 19.4328 0 19.0909V4.24242ZM1.81818 17.3057L4.81368 15.1271C5.80102 14.3887 7.00817 14.0404 8.28283 14.0404H15.7576C17.0737 14.0404 18.1818 12.9323 18.1818 11.6162V4.24242C18.1818 2.92632 17.0737 1.81818 15.7576 1.81818H4.24242C2.92632 1.81818 1.81818 2.92632 1.81818 4.24242V17.3057Z" fill="#222222"/>
<path id="Vector (Stroke)_2" fill-rule="evenodd" clip-rule="evenodd" d="M4.54688 5.4545C4.54688 4.95242 4.95389 4.54541 5.45597 4.54541H14.5469C15.049 4.54541 15.456 4.95242 15.456 5.4545C15.456 5.95658 15.049 6.36359 14.5469 6.36359H5.45597C4.95389 6.36359 4.54688 5.95658 4.54688 5.4545Z" fill="#222222"/>
<path id="Vector (Stroke)_3" fill-rule="evenodd" clip-rule="evenodd" d="M4.54688 9.99991C4.54688 9.49783 4.95389 9.09082 5.45597 9.09082H10.0014C10.5035 9.09082 10.9105 9.49783 10.9105 9.99991C10.9105 10.502 10.5035 10.909 10.0014 10.909H5.45597C4.95389 10.909 4.54688 10.502 4.54688 9.99991Z" fill="#222222"/>
</g>
</svg>
